<svg width="106" height="31" viewBox="0 0 106 31" fill="none" xmlns="http://www.w3.org/2000/svg">

<g id="homepage">

<g id="Frame 18">
<g id="Frame 17">
<path id="Vector" d="M4.16251 1.41858C7.40837 -0.473648 11.5644 -0.330781 14.9257 1.18782C14.9476 2.21541 15.0301 3.243 14.9733 4.26873C14.3945 3.56164 13.9934 2.70812 13.2735 2.12196C10.7384 -0.0597116 6.51995 -0.0597105 4.07833 2.27024C2.64777 3.64952 2.07073 5.67905 2.01389 7.61885C1.97002 9.99653 2.64777 12.4694 4.25595 14.2698C5.3861 15.5594 6.99984 16.4184 8.70888 16.5944C10.5021 16.8379 12.4804 16.3818 13.7461 15.0226C14.4531 14.3486 14.8322 13.4364 15.2755 12.5866C15.51 13.1562 15.3103 13.7662 15.2609 14.3505C15.1802 14.867 15.1839 15.4037 15.0063 15.9001C13.0206 16.902 10.7329 17.1915 8.5311 17.164C6.13706 17.0852 3.61852 16.3525 1.96446 14.5299C0.51923 12.9803 -0.0687799 10.7988 0.00643956 8.71795C-0.03758 5.77065 1.61277 2.88945 4.16251 1.41858Z" fill="#121212"/>
<path id="Vector_2" d="M22.8201 0.811349C23.4228 0.542135 24.0255 0.267361 24.628 0C26.3554 4.11946 28.0608 8.24634 29.7825 12.3677C30.2001 13.344 30.5555 14.3533 31.0666 15.2875C31.4036 15.9322 32.0045 16.37 32.4606 16.9231C31.1307 16.9525 29.7953 17.0129 28.4691 16.8774C28.656 16.6521 28.8593 16.4395 29.0371 16.2051C29.0406 15.7527 28.8667 15.3259 28.7036 14.9138C28.1011 13.485 27.5056 12.0544 26.9176 10.6203C24.6958 10.611 22.4758 10.635 20.254 10.6075C19.7611 11.7046 19.3453 12.8347 18.8764 13.9429C18.642 14.5621 18.3709 15.2014 18.4203 15.8773C18.4753 16.3426 18.9717 16.544 19.2575 16.8553C18.2555 17.0075 17.237 16.9672 16.2278 16.9177C16.6637 16.392 17.3305 16.0971 17.6749 15.4944C18.0431 14.9101 18.3049 14.2671 18.5615 13.628C20.0506 9.92603 21.5508 6.22777 23.0418 2.52595C23.3275 1.95076 23.0399 1.34993 22.8201 0.811349ZM23.5199 2.45815C22.4849 5.0519 21.4208 7.63269 20.3913 10.2265C22.5087 10.2337 24.628 10.2302 26.7474 10.2302C25.6905 7.63084 24.597 5.0482 23.5199 2.45815Z" fill="#121212"/>
<path id="Vector_3" d="M79.6181 0.130766C82.3548 -0.325339 85.3478 0.451259 87.3205 2.45346C88.9745 4.0672 89.7201 6.42819 89.6744 8.70501C89.6944 10.7986 89.0314 12.9528 87.588 14.5042C85.5603 16.7152 82.3072 17.5815 79.4057 16.9844C77.1821 16.5595 75.0901 15.246 73.9271 13.277C72.8023 11.4307 72.5497 9.17579 72.8207 7.06192C73.1156 4.9757 74.1907 2.9718 75.8888 1.69879C76.9732 0.870755 78.2756 0.352408 79.6181 0.130766ZM78.7462 0.759087C77.3065 1.08869 76.0464 2.08338 75.3924 3.40767C74.4508 5.27966 74.5021 7.48883 74.9747 9.48346C75.5499 11.8757 76.8633 14.1965 78.9643 15.5538C80.6842 16.6931 82.9922 16.8616 84.8551 15.9787C86.0658 15.4073 86.9671 14.2936 87.3938 13.037C88.0385 11.1962 87.8278 9.17949 87.3535 7.32573C86.7508 5.1368 85.5529 3.02123 83.6699 1.69508C82.2632 0.691279 80.4241 0.337734 78.7462 0.759087Z" fill="#121212"/>
<path id="Vector_4" d="M33.7467 0.230097C35.1644 0.175265 36.5858 0.219131 38.0053 0.202605C39.6008 0.189785 41.253 0.230095 42.7514 0.841891C43.6287 1.19729 44.4255 1.87875 44.6893 2.81474C45.0245 4.03648 44.8119 5.43954 43.9969 6.42867C43.1159 7.52407 41.7164 7.99114 40.3792 8.22931C41.6357 8.41605 42.8612 9.0663 43.4602 10.2276C44.4859 12.0868 44.9273 14.2299 46.0942 16.0177C46.4093 16.5855 47.0888 16.6295 47.6567 16.7449C46.9862 17.1662 46.1565 17.124 45.4018 17.0325C44.5208 16.9134 43.9822 16.1148 43.6214 15.3784C42.9106 13.8525 42.3244 12.2718 41.6725 10.7204C41.3208 9.92908 40.8848 9.08653 40.0825 8.67615C39.0568 8.15054 37.868 8.3904 36.7653 8.34654C36.7707 10.2386 36.7579 12.1327 36.7689 14.0266C36.7928 14.675 36.7873 15.3455 37.0217 15.9608C37.2159 16.3309 37.5878 16.5617 37.8717 16.8567C36.4924 17.0399 35.0966 16.9483 33.7117 16.9115C34.0287 16.5581 34.4298 16.2503 34.613 15.7998C34.798 15.1018 34.8071 14.3746 34.8181 13.6584C34.8164 10.2349 34.8181 6.81327 34.8181 3.38993C34.8017 2.68284 34.7943 1.95922 34.5983 1.27421C34.3822 0.87865 34.0653 0.545184 33.7467 0.230097ZM36.7616 0.645888C36.7707 3.0767 36.7635 5.50735 36.7672 7.938C38.3791 7.91422 40.1832 8.15779 41.5735 7.14858C43.3632 5.78027 43.1305 2.6297 41.2511 1.43546C39.9397 0.56171 38.2801 0.515837 36.7616 0.645888Z" fill="#121212"/>
<path id="Vector_5" d="M48.8855 0.229069C50.2538 0.185203 51.6259 0.188753 52.9977 0.227213C52.6131 0.641306 52.1112 1.03686 52.0342 1.63213C51.9372 2.21288 51.9354 2.80259 51.9298 3.3906C51.9317 7.29954 51.9354 11.2083 51.9281 15.1173C51.9226 15.5936 51.9573 16.2181 52.4885 16.4124C53.1993 16.601 53.9502 16.4765 54.6793 16.5075C56.0329 16.4928 57.5331 16.6504 58.709 15.8353C59.3942 15.3993 59.6433 14.5714 60.2458 14.0494C60.2679 15.0184 60.1745 15.9855 60.1104 16.9508C56.3645 16.9326 52.6185 16.9874 48.8746 16.9233C49.3106 16.4618 49.8509 15.9838 49.8728 15.2986C50.0744 12.8642 49.9315 10.4152 49.9737 7.97358C49.9352 5.89277 50.0744 3.80099 49.8583 1.72743C49.8124 1.09185 49.2885 0.661387 48.8855 0.229069Z" fill="#121212"/>
<path id="Vector_6" d="M59.4087 0.204071C63.5081 0.202217 67.6092 0.204071 71.7104 0.204071C71.7582 1.15474 71.868 2.10912 71.7691 3.06164C71.2343 2.3564 70.846 1.47539 70.0198 1.05589C68.9628 0.517309 67.7357 0.610753 66.5872 0.586967C66.5872 5.19188 66.5799 9.79494 66.589 14.3999C66.6331 15.0722 66.5781 15.8872 67.155 16.3634C67.2814 16.5448 67.58 16.6639 67.5378 16.9221C66.2429 16.9735 64.9387 16.9808 63.6436 16.9204C63.5026 16.6694 63.8927 16.5485 64.0008 16.3671C64.576 15.8945 64.5229 15.0685 64.5668 14.398C64.5742 9.79494 64.5686 5.19188 64.5686 0.586967C63.3725 0.61446 62.0793 0.502631 60.995 1.10902C60.2311 1.53207 59.8665 2.35825 59.385 3.04141C59.1578 2.10726 59.3904 1.14933 59.4087 0.204071Z" fill="#121212"/>
<path id="Vector_7" d="M91.3486 0.24733C92.193 0.177671 93.0411 0.205164 93.8873 0.203311C97.3511 4.68559 100.808 9.17141 104.273 13.6518C104.293 10.7248 104.273 7.79584 104.284 4.86877C104.275 3.77708 104.321 2.63953 103.914 1.60653C103.694 0.932338 102.943 0.730928 102.5 0.243624C103.595 0.172265 104.694 0.194197 105.792 0.230803C105.473 0.534924 105.13 0.837196 104.92 1.2309C104.614 2.1669 104.746 3.16344 104.722 4.13063C104.709 8.50649 104.753 12.8844 104.7 17.2604C104.465 17.0863 104.222 16.9196 104.039 16.6943C100.425 11.9868 96.8181 7.27379 93.1876 2.57913C93.1748 6.20959 93.1858 9.84005 93.1802 13.4687C93.2059 14.3203 93.2664 15.2436 93.7755 15.9616C94.1437 16.3114 94.6201 16.5313 94.9662 16.9141C93.8561 16.96 92.7388 17.0203 91.6362 16.8574C91.9841 16.4946 92.5062 16.2107 92.6033 15.6723C92.8011 14.8937 92.7351 14.0842 92.7444 13.2892C92.7407 10.1111 92.7388 6.9312 92.7444 3.7533C92.737 3.02427 92.7901 2.28057 92.6033 1.56792C92.4806 0.919516 91.8028 0.637482 91.3486 0.24733Z" fill="#121212"/>
<path id="Vector_8" d="M36.8343 24.6427C36.9772 24.6446 37.2629 24.6464 37.4041 24.6464C37.4022 25.4579 37.4022 26.2693 37.4058 27.0808C38.4005 27.0845 39.3952 27.0845 40.3916 27.0826C40.3916 26.2693 40.3916 25.4561 40.3916 24.6446C40.5381 24.6446 40.8311 24.6446 40.9777 24.6446C40.9777 26.4762 40.9796 28.3081 40.9777 30.1397C40.8311 30.1397 40.5381 30.1397 40.3916 30.1397C40.3916 29.2972 40.3916 28.4545 40.3897 27.6119C39.3952 27.6119 38.4005 27.6119 37.4058 27.6119C37.4022 28.4545 37.4022 29.2953 37.4041 30.1379C37.2612 30.1397 36.9772 30.1397 36.8343 30.1416C36.8308 28.3081 36.8308 26.4762 36.8343 24.6427Z" fill="#121212"/>
<path id="Vector_9" d="M45.942 24.7325C46.8267 24.4412 47.8874 24.5933 48.5705 25.2545C49.6293 26.2674 49.688 28.079 48.8508 29.2439C48.0265 30.4053 46.1711 30.5573 45.1379 29.5956C43.6579 28.2933 44.0022 25.4065 45.942 24.7325ZM45.9622 25.3095C44.7184 25.936 44.528 27.698 45.1966 28.8099C45.8303 29.9198 47.6107 29.9841 48.36 28.9675C48.959 28.1376 48.9735 26.947 48.5029 26.0568C48.0321 25.172 46.836 24.9156 45.9622 25.3095Z" fill="#121212"/>
<path id="Vector_10" d="M51.8949 24.6439C53.2614 24.6439 54.6297 24.6439 55.998 24.6439C55.998 24.7812 55.998 25.056 55.998 25.1916C55.4009 25.1935 54.8038 25.1935 54.2065 25.1953C54.2084 26.8438 54.2102 28.4923 54.2065 30.1391C54.0655 30.1391 53.7798 30.1391 53.6369 30.1373C53.6369 28.4905 53.6369 26.842 53.6369 25.1935C53.0563 25.1935 52.4738 25.1935 51.8949 25.1916C51.8949 25.056 51.8949 24.7812 51.8949 24.6439Z" fill="#121212"/>
<path id="Vector_11" d="M58.9964 24.6442C60.2255 24.6442 61.4545 24.6424 62.6837 24.6479C62.6837 24.7834 62.6837 25.0544 62.6837 25.1901C61.6451 25.1956 60.6064 25.1938 59.5679 25.1938C59.566 25.8219 59.566 26.4521 59.5679 27.0804C60.4197 27.084 61.2732 27.0823 62.125 27.0823C62.136 27.2123 62.1561 27.4687 62.1653 27.5969C61.2988 27.6135 60.4343 27.6172 59.5679 27.6116C59.566 28.2894 59.566 28.9671 59.5697 29.6448C60.6064 29.6484 61.6451 29.6484 62.6818 29.6467C62.6837 29.7693 62.6855 30.0129 62.6872 30.1357C61.4564 30.143 60.2274 30.1394 58.9964 30.1394C58.9945 28.3076 58.9945 26.4759 58.9964 24.6442Z" fill="#121212"/>
<path id="Vector_12" d="M65.776 24.6427C65.9189 24.6446 66.2046 24.6464 66.3456 24.6464C66.3438 26.3133 66.3438 27.9802 66.3475 29.6452C67.322 29.6489 68.2983 29.6489 69.2746 29.647C69.2764 29.7678 69.282 30.0134 69.2838 30.1342C68.1132 30.1435 66.9446 30.1397 65.7742 30.1397C65.7742 28.3062 65.7723 26.4745 65.776 24.6427Z" fill="#121212"/>
</g>
</g>
</g>
</svg>
