<svg width="130" height="91" viewBox="0 0 130 91" fill="none" xmlns="http://www.w3.org/2000/svg">
<g id="CarltonLogo">
<path id="Vector" d="M57.4475 6.02324C57.7464 5.85969 58.1627 5.90259 58.3913 6.16735C61.9164 10.232 64.1867 15.3624 64.8406 20.7013C64.9718 21.7128 65.0223 22.7322 65.0485 23.751C65.5841 20.3312 66.4945 16.9249 68.1689 13.8744C68.7306 12.9051 69.7498 12.2281 70.8547 12.0585C74.1094 11.5719 77.4581 11.4707 80.6943 12.145C81.1408 12.2107 81.4339 12.7375 81.2618 13.1524C81.1421 13.4185 80.9649 13.6538 80.8139 13.9025C78.2637 17.876 74.6596 21.1618 70.476 23.3476C69.1996 24.0253 67.8586 24.5723 66.4951 25.0474C69.5873 24.5253 72.7594 24.3343 75.8746 24.7725C76.4876 24.8691 77.1229 24.9301 77.6878 25.211C78.478 25.5777 79.1312 26.2278 79.503 27.0167C80.9367 29.901 82.0346 32.9904 82.407 36.2031C82.4409 36.4357 82.4262 36.6945 82.2669 36.882C82.0807 37.1315 81.741 37.2166 81.4473 37.1402C75.2483 35.691 69.6084 31.9869 65.8195 26.8712C67.1989 29.6088 68.357 32.489 68.8995 35.518C69.0083 36.1843 69.1618 36.8613 69.0588 37.5389C68.9456 38.3983 68.5214 39.2073 67.8925 39.8026C65.6282 42.0111 63.0847 43.9785 60.2078 45.3224C59.994 45.4182 59.7681 45.5489 59.5247 45.496C59.1755 45.4483 58.89 45.1313 58.8826 44.7781C58.4315 39.389 59.6313 33.8752 62.2789 29.159C62.7227 28.3365 63.2543 27.5663 63.7603 26.7822C61.5973 28.9204 59.2318 30.891 56.5399 32.3302C55.9715 32.6224 55.4098 32.9582 54.7751 33.0836C53.8983 33.2632 52.962 33.125 52.1743 32.6988C49.2927 31.186 46.558 29.3145 44.3594 26.8954C44.0014 26.5489 44.1248 25.8711 44.5893 25.6828C49.7291 23.5051 55.5452 22.9715 60.9987 24.1593C61.7642 24.3101 62.5089 24.5481 63.265 24.7364C60.2426 23.1779 57.3375 21.2985 54.9895 18.8144C54.2046 17.9745 53.8635 16.7634 54.0471 15.6338C54.582 12.4533 55.4957 9.30096 57.0762 6.47502C57.17 6.30409 57.2732 6.12446 57.4475 6.02324Z" fill="white"/>
<path id="Vector_2" d="M24.4831 57.535C27.2147 55.9426 30.7122 56.0628 33.5409 57.3408C33.5593 58.2056 33.6288 59.0703 33.581 59.9336C33.0939 59.3385 32.7563 58.6202 32.1505 58.1269C30.0171 56.291 26.4671 56.291 24.4123 58.2517C23.2084 59.4125 22.7228 61.1204 22.675 62.7528C22.6381 64.7538 23.2084 66.835 24.5618 68.3501C25.5129 69.4352 26.8709 70.1582 28.3091 70.306C29.8182 70.5113 31.4831 70.1275 32.5483 68.9835C33.1432 68.416 33.4623 67.6489 33.8353 66.9336C34.0326 67.4128 33.8645 67.9259 33.8229 68.4179C33.7551 68.8523 33.7583 69.304 33.6087 69.7218C31.9377 70.5651 30.0124 70.8088 28.1595 70.7858C26.1448 70.7193 24.0253 70.1025 22.6334 68.5689C21.4171 67.265 20.9223 65.4287 20.9856 63.6778C20.9485 61.1975 22.3374 58.7728 24.4831 57.535Z" fill="white"/>
<path id="Vector_3" d="M40.1849 57.0236C40.6922 56.7971 41.1993 56.5658 41.7064 56.3408C43.1601 59.8076 44.5952 63.2806 46.0441 66.7486C46.3956 67.5708 46.6947 68.4198 47.1248 69.2061C47.4084 69.7486 47.9141 70.1172 48.2979 70.5823C47.1787 70.6073 46.0549 70.6578 44.9389 70.5439C45.0962 70.3545 45.2673 70.1754 45.4169 69.9783C45.4199 69.5976 45.2735 69.2381 45.1362 68.8913C44.6291 67.6891 44.1281 66.485 43.6332 65.2783C41.7635 65.2707 39.8952 65.2905 38.0255 65.2675C37.6107 66.1907 37.2608 67.1421 36.8661 68.0743C36.6688 68.5957 36.4407 69.1338 36.4823 69.7026C36.5286 70.0941 36.9463 70.2637 37.1868 70.5254C36.3436 70.6533 35.4865 70.6194 34.6372 70.5778C35.004 70.1357 35.5652 69.8875 35.855 69.3801C36.1649 68.8887 36.3852 68.3475 36.6011 67.8094C37.8543 64.6942 39.1168 61.5818 40.3715 58.4666C40.6119 57.9825 40.3699 57.4769 40.1849 57.0236ZM40.7739 58.4095C39.9029 60.5923 39.0073 62.7642 38.141 64.9469C39.9229 64.9533 41.7064 64.9501 43.49 64.9501C42.6005 62.7626 41.6803 60.5892 40.7739 58.4095Z" fill="white"/>
<path id="Vector_4" d="M87.983 56.4503C90.2863 56.0665 92.8052 56.72 94.4649 58.405C95.8571 59.763 96.4847 61.7499 96.4463 63.666C96.463 65.4281 95.9051 67.2406 94.6901 68.5465C92.9837 70.407 90.246 71.1357 87.8045 70.6335C85.9331 70.2758 84.1724 69.1703 83.1941 67.5138C82.2472 65.9597 82.0348 64.0621 82.2626 62.2832C82.5108 60.5276 83.4155 58.8412 84.8448 57.7699C85.7572 57.073 86.8532 56.6368 87.983 56.4503ZM87.2492 56.979C86.038 57.2564 84.9772 58.0935 84.427 59.208C83.6349 60.7834 83.6778 62.6425 84.0758 64.3212C84.5595 66.334 85.665 68.2873 87.4328 69.4294C88.8801 70.3884 90.8225 70.5298 92.3906 69.787C93.4092 69.3065 94.168 68.3692 94.5269 67.3116C95.0695 65.7627 94.8923 64.0653 94.493 62.5052C93.9857 60.6631 92.9773 58.8828 91.3932 57.7668C90.2089 56.922 88.6612 56.6244 87.2492 56.979Z" fill="white"/>
<path id="Vector_5" d="M49.3797 56.5332C50.5728 56.487 51.769 56.5239 52.9636 56.5101C54.3062 56.4993 55.6967 56.5332 56.9576 57.0481C57.6959 57.3471 58.3665 57.9206 58.5885 58.7083C58.8705 59.7365 58.6917 60.9172 58.0058 61.7496C57.2644 62.6714 56.0866 63.0645 54.9613 63.265C56.0187 63.4221 57.05 63.9693 57.5541 64.9469C58.4173 66.5112 58.7888 68.3148 59.7708 69.819C60.036 70.2969 60.6078 70.334 61.0857 70.4313C60.5215 70.7857 59.8232 70.7505 59.1881 70.6731C58.4467 70.5733 57.9934 69.9009 57.6898 69.2815C57.0916 67.9975 56.5983 66.6667 56.0497 65.3615C55.7537 64.6954 55.3868 63.9865 54.7117 63.641C53.8485 63.1987 52.848 63.4005 51.92 63.3636C51.9246 64.9558 51.9138 66.5496 51.9231 68.144C51.9432 68.6891 51.9385 69.2534 52.1358 69.7716C52.2992 70.0826 52.6122 70.2771 52.8511 70.5253C51.6904 70.6795 50.5157 70.6021 49.3503 70.5714C49.617 70.2739 49.9546 70.0147 50.1088 69.636C50.2645 69.0486 50.2722 68.4364 50.2814 67.8337C50.28 64.9526 50.2814 62.0733 50.2814 59.1924C50.2676 58.5973 50.2614 57.9883 50.0964 57.4119C49.9146 57.079 49.6478 56.7984 49.3797 56.5332ZM51.9169 56.8831C51.9246 58.9288 51.9185 60.9743 51.9216 63.0198C53.2781 62.9998 54.7964 63.2048 55.9664 62.3555C57.4725 61.204 57.2767 58.5526 55.6951 57.5476C54.5914 56.8122 53.1948 56.7737 51.9169 56.8831Z" fill="white"/>
<path id="Vector_6" d="M62.1198 56.5333C63.2713 56.4964 64.4261 56.4994 65.5803 56.5318C65.2566 56.8802 64.8343 57.2131 64.7697 57.7141C64.6878 58.2028 64.6865 58.6991 64.682 59.194C64.6833 62.4835 64.6865 65.773 64.6801 69.0622C64.6756 69.4634 64.7051 69.9886 65.1516 70.1524C65.7499 70.3111 66.382 70.2062 66.9955 70.2324C68.1344 70.2203 69.3974 70.3527 70.3865 69.6668C70.9636 69.2996 71.1728 68.6035 71.6802 68.1639C71.6987 68.979 71.62 69.7929 71.5663 70.6054C68.414 70.5901 65.261 70.6361 62.1106 70.5824C62.4775 70.194 62.9322 69.7916 62.9507 69.2151C63.1203 67.1665 63 65.1057 63.0356 63.0508C63.0032 61.2996 63.1203 59.5393 62.9384 57.7943C62.8999 57.2594 62.4589 56.8971 62.1198 56.5333Z" fill="white"/>
<path id="Vector_7" d="M70.9757 56.5119C74.4255 56.5104 77.8773 56.5119 81.3284 56.5119C81.3687 57.312 81.4608 58.1151 81.3776 58.9167C80.9279 58.3232 80.6009 57.5818 79.9055 57.2287C79.0161 56.7755 77.9835 56.8541 77.0167 56.8342C77.0167 60.7094 77.011 64.5829 77.0187 68.4582C77.0558 69.0244 77.0091 69.7103 77.4947 70.1108C77.6009 70.2637 77.8523 70.3635 77.8171 70.581C76.7269 70.6245 75.6297 70.6303 74.5394 70.5798C74.4211 70.3686 74.7493 70.2669 74.8401 70.114C75.3245 69.716 75.2797 69.0212 75.3168 68.4569C75.3226 64.5829 75.3181 60.7094 75.3181 56.8342C74.3117 56.8573 73.2234 56.7632 72.311 57.2735C71.668 57.6295 71.3609 58.3248 70.9559 58.8997C70.7646 58.1135 70.9604 57.3074 70.9757 56.5119Z" fill="white"/>
<path id="Vector_8" d="M97.8552 56.549C98.5654 56.4904 99.2794 56.5135 99.9915 56.5119C102.906 60.284 105.815 64.059 108.732 67.8293C108.748 65.3661 108.732 62.9015 108.741 60.4382C108.733 59.5195 108.772 58.5621 108.429 57.6928C108.244 57.1254 107.613 56.956 107.239 56.5459C108.161 56.4858 109.086 56.5043 110.01 56.5351C109.741 56.791 109.453 57.0454 109.276 57.3767C109.018 58.1644 109.129 59.0031 109.109 59.817C109.098 63.4995 109.136 67.1838 109.091 70.8665C108.894 70.72 108.688 70.5798 108.534 70.3898C105.493 66.4282 102.458 62.4621 99.4029 58.5113C99.392 61.5665 99.401 64.622 99.3965 67.6751C99.4183 68.3924 99.4688 69.1691 99.8975 69.7731C100.207 70.068 100.608 70.2529 100.899 70.5747C99.9653 70.6138 99.0248 70.6643 98.0971 70.5274C98.3901 70.2222 98.829 69.9829 98.9109 69.5299C99.0772 68.8748 99.0216 68.1934 99.0299 67.5242C99.0267 64.8498 99.0248 62.1738 99.0299 59.4994C99.0235 58.8859 99.0683 58.2601 98.9109 57.6603C98.8079 57.1147 98.2372 56.8773 97.8552 56.549Z" fill="white"/>
<path id="Vector_9" d="M51.9788 77.0781C52.099 77.0794 52.3395 77.0813 52.4584 77.0813C52.4568 77.764 52.4568 78.4467 52.4598 79.13C53.2968 79.1332 54.1339 79.1332 54.9725 79.1312C54.9725 78.4467 54.9725 77.7627 54.9725 77.0794C55.0958 77.0794 55.3423 77.0794 55.4657 77.0794C55.4657 78.6213 55.4673 80.1626 55.4657 81.7039C55.3423 81.7039 55.0958 81.7039 54.9725 81.7039C54.9725 80.995 54.9725 80.2861 54.9709 79.5766C54.1339 79.5766 53.2968 79.5766 52.4598 79.5766C52.4568 80.2861 52.4568 80.9937 52.4584 81.7026C52.3381 81.7039 52.099 81.7039 51.9788 81.7058C51.9758 80.1626 51.9758 78.6213 51.9788 77.0781Z" fill="white"/>
<path id="Vector_10" d="M59.6429 77.1537C60.3875 76.9087 61.28 77.0367 61.855 77.5933C62.746 78.4455 62.7953 79.9702 62.0909 80.9503C61.3972 81.928 59.8357 82.0559 58.9663 81.2466C57.7208 80.1506 58.0105 77.7212 59.6429 77.1537ZM59.6599 77.6394C58.6132 78.1666 58.453 79.6496 59.0157 80.585C59.5489 81.5191 61.0473 81.5735 61.6778 80.7181C62.1818 80.0194 62.1941 79.0175 61.798 78.2683C61.4019 77.5236 60.3953 77.3079 59.6599 77.6394Z" fill="white"/>
<path id="Vector_11" d="M64.6526 77.0796C65.8023 77.0796 66.954 77.0796 68.1056 77.0796C68.1056 77.1954 68.1056 77.4264 68.1056 77.5409C67.6027 77.5422 67.1005 77.5422 66.5976 77.5441C66.5995 78.9312 66.6008 80.3183 66.5976 81.7041C66.4792 81.7041 66.2387 81.7041 66.1184 81.7028C66.1184 80.317 66.1184 78.9299 66.1184 77.5422C65.6302 77.5422 65.1395 77.5422 64.6526 77.5409C64.6526 77.4264 64.6526 77.1954 64.6526 77.0796Z" fill="white"/>
<path id="Vector_12" d="M70.6289 77.0795C71.6634 77.0795 72.6974 77.0782 73.7319 77.0827C73.7319 77.1966 73.7319 77.425 73.7319 77.5389C72.858 77.544 71.984 77.5421 71.11 77.5421C71.1081 78.0706 71.1081 78.601 71.11 79.1301C71.8266 79.1326 72.5451 79.1314 73.2617 79.1314C73.2713 79.2408 73.2879 79.457 73.2956 79.5645C72.5662 79.5786 71.8388 79.5818 71.11 79.5767C71.1081 80.1474 71.1081 80.7174 71.1113 81.2881C71.984 81.2913 72.858 81.2913 73.7306 81.2894C73.7319 81.3931 73.7332 81.5978 73.7351 81.7014C72.6993 81.7072 71.6647 81.704 70.6289 81.704C70.6276 80.1627 70.6276 78.6214 70.6289 77.0795Z" fill="white"/>
<path id="Vector_13" d="M76.3342 77.0781C76.4545 77.0794 76.6944 77.0813 76.8134 77.0813C76.8121 78.4838 76.8121 79.8869 76.8147 81.288C77.6349 81.2912 78.4564 81.2912 79.2779 81.2893C79.2799 81.391 79.2843 81.5977 79.2862 81.6994C78.301 81.7071 77.3176 81.7039 76.3323 81.7039C76.3323 80.1613 76.331 78.6194 76.3342 77.0781Z" fill="white"/>
</g>
</svg>
