<svg width="51" height="52" viewBox="0 0 51 52" fill="none" xmlns="http://www.w3.org/2000/svg">
<path d="M17.3863 0.125846C17.7772 -0.0880275 18.3216 -0.0319214 18.6205 0.314302C23.2302 5.62952 26.199 12.3384 27.0541 19.3199C27.2256 20.6426 27.2917 21.9757 27.326 23.308C28.0263 18.836 29.2168 14.3816 31.4064 10.3926C32.1409 9.12505 33.4737 8.23979 34.9186 8.01799C39.1747 7.38172 43.5537 7.24936 47.7855 8.13111C48.3695 8.21703 48.7526 8.90593 48.5276 9.4485C48.3711 9.79646 48.1394 10.1041 47.9419 10.4293C44.607 15.6253 39.8942 19.9221 34.4233 22.7804C32.7542 23.6666 31.0006 24.3819 29.2177 25.0033C33.2612 24.3205 37.4093 24.0707 41.483 24.6438C42.2845 24.7701 43.1153 24.8498 43.854 25.2171C44.8873 25.6966 45.7415 26.5468 46.2276 27.5784C48.1026 31.3501 49.5383 35.39 50.0252 39.5912C50.0695 39.8953 50.0503 40.2337 49.842 40.479C49.5985 40.8052 49.1542 40.9165 48.7702 40.8166C40.6639 38.9215 33.2888 34.0778 28.3342 27.3881C30.138 30.968 31.6523 34.7344 32.3618 38.6953C32.504 39.5666 32.7048 40.4519 32.5701 41.338C32.422 42.4618 31.8673 43.5197 31.0449 44.2981C28.084 47.1862 24.7579 49.7589 20.9959 51.5162C20.7163 51.6415 20.4209 51.8125 20.1027 51.7433C19.646 51.6809 19.2727 51.2663 19.263 50.8045C18.673 43.7573 20.2421 36.547 23.7042 30.3798C24.2845 29.3043 24.9797 28.2972 25.6414 27.2718C22.8129 30.0678 19.7197 32.6447 16.1996 34.5267C15.4563 34.9088 14.7217 35.3479 13.8917 35.5119C12.7452 35.7468 11.5207 35.5661 10.4907 35.0088C6.72255 33.0304 3.14645 30.5831 0.271387 27.4198C-0.196719 26.9666 -0.0354149 26.0804 0.572078 25.8341C7.29315 22.9864 14.8988 22.2887 22.0302 23.8418C23.0311 24.039 24.0049 24.3503 24.9937 24.5966C21.0414 22.5586 17.2425 20.1009 14.1721 16.8525C13.1457 15.7542 12.6997 14.1704 12.9398 12.6933C13.6392 8.53429 14.834 4.41203 16.9007 0.716622C17.0234 0.493111 17.1584 0.258204 17.3863 0.125846Z" fill="white"/>
</svg>
