<svg preserveAspectRatio="none" overflow="visible" style="display: block;" width="14.9928" height="14.9928" viewBox="0 0 14.9928 14.9928" fill="none" xmlns="http://www.w3.org/2000/svg">
<g id="Icon" clip-path="url(#clip0_0_131)">
<path id="Vector" d="M3.7482 13.7434V2.4988C3.7482 2.16744 3.87983 1.84965 4.11414 1.61534C4.34845 1.38103 4.66624 1.2494 4.9976 1.2494H9.9952C10.3266 1.2494 10.6444 1.38103 10.8787 1.61534C11.113 1.84965 11.2446 2.16744 11.2446 2.4988V13.7434H3.7482Z" stroke="#2F7D8E" stroke-width="1.2494" stroke-linecap="round" stroke-linejoin="round"/>
<path id="Vector_2" d="M3.7482 7.4964H2.4988C2.16744 7.4964 1.84965 7.62803 1.61534 7.86234C1.38103 8.09665 1.2494 8.41444 1.2494 8.7458V12.494C1.2494 12.8254 1.38103 13.1432 1.61534 13.3775C1.84965 13.6118 2.16744 13.7434 2.4988 13.7434H3.7482" stroke="#2F7D8E" stroke-width="1.2494" stroke-linecap="round" stroke-linejoin="round"/>
<path id="Vector_3" d="M11.2446 5.6223H12.494C12.8254 5.6223 13.1432 5.75393 13.3775 5.98824C13.6118 6.22255 13.7434 6.54034 13.7434 6.8717V12.494C13.7434 12.8254 13.6118 13.1432 13.3775 13.3775C13.1432 13.6118 12.8254 13.7434 12.494 13.7434H11.2446" stroke="#2F7D8E" stroke-width="1.2494" stroke-linecap="round" stroke-linejoin="round"/>
<path id="Vector_4" d="M6.247 3.7482H8.7458" stroke="#2F7D8E" stroke-width="1.2494" stroke-linecap="round" stroke-linejoin="round"/>
<path id="Vector_5" d="M6.247 6.247H8.7458" stroke="#2F7D8E" stroke-width="1.2494" stroke-linecap="round" stroke-linejoin="round"/>
<path id="Vector_6" d="M6.247 8.7458H8.7458" stroke="#2F7D8E" stroke-width="1.2494" stroke-linecap="round" stroke-linejoin="round"/>
<path id="Vector_7" d="M6.247 11.2446H8.7458" stroke="#2F7D8E" stroke-width="1.2494" stroke-linecap="round" stroke-linejoin="round"/>
</g>
<defs>
<clipPath id="clip0_0_131">
<rect width="14.9928" height="14.9928" fill="white"/>
</clipPath>
</defs>
</svg>
