<svg preserveAspectRatio="none" overflow="visible" style="display: block;" width="14.9928" height="14.9928" viewBox="0 0 14.9928 14.9928" fill="none" xmlns="http://www.w3.org/2000/svg">
<g id="Icon">
<path id="Vector" d="M4.3729 1.8741H2.4988C2.15379 1.8741 1.8741 2.15379 1.8741 2.4988V4.3729C1.8741 4.71791 2.15379 4.9976 2.4988 4.9976H4.3729C4.71791 4.9976 4.9976 4.71791 4.9976 4.3729V2.4988C4.9976 2.15379 4.71791 1.8741 4.3729 1.8741Z" stroke="#2F7D8E" stroke-width="1.2494" stroke-linecap="round" stroke-linejoin="round"/>
<path id="Vector_2" d="M12.494 1.8741H10.6199C10.2749 1.8741 9.9952 2.15379 9.9952 2.4988V4.3729C9.9952 4.71791 10.2749 4.9976 10.6199 4.9976H12.494C12.839 4.9976 13.1187 4.71791 13.1187 4.3729V2.4988C13.1187 2.15379 12.839 1.8741 12.494 1.8741Z" stroke="#2F7D8E" stroke-width="1.2494" stroke-linecap="round" stroke-linejoin="round"/>
<path id="Vector_3" d="M4.3729 9.9952H2.4988C2.15379 9.9952 1.8741 10.2749 1.8741 10.6199V12.494C1.8741 12.839 2.15379 13.1187 2.4988 13.1187H4.3729C4.71791 13.1187 4.9976 12.839 4.9976 12.494V10.6199C4.9976 10.2749 4.71791 9.9952 4.3729 9.9952Z" stroke="#2F7D8E" stroke-width="1.2494" stroke-linecap="round" stroke-linejoin="round"/>
<path id="Vector_4" d="M13.1187 9.9952H11.2446C10.9132 9.9952 10.5954 10.1268 10.3611 10.3611C10.1268 10.5954 9.9952 10.9132 9.9952 11.2446V13.1187" stroke="#2F7D8E" stroke-width="1.2494" stroke-linecap="round" stroke-linejoin="round"/>
<path id="Vector_5" d="M13.1187 13.1187V13.1249" stroke="#2F7D8E" stroke-width="1.2494" stroke-linecap="round" stroke-linejoin="round"/>
<path id="Vector_6" d="M7.4964 4.3729V6.247C7.4964 6.57836 7.36477 6.89615 7.13046 7.13046C6.89615 7.36477 6.57836 7.4964 6.247 7.4964H4.3729" stroke="#2F7D8E" stroke-width="1.2494" stroke-linecap="round" stroke-linejoin="round"/>
<path id="Vector_7" d="M1.8741 7.4964H1.88035" stroke="#2F7D8E" stroke-width="1.2494" stroke-linecap="round" stroke-linejoin="round"/>
<path id="Vector_8" d="M7.4964 1.8741H7.50265" stroke="#2F7D8E" stroke-width="1.2494" stroke-linecap="round" stroke-linejoin="round"/>
<path id="Vector_9" d="M7.4964 9.9952V10.0014" stroke="#2F7D8E" stroke-width="1.2494" stroke-linecap="round" stroke-linejoin="round"/>
<path id="Vector_10" d="M9.9952 7.4964H10.6199" stroke="#2F7D8E" stroke-width="1.2494" stroke-linecap="round" stroke-linejoin="round"/>
<path id="Vector_11" d="M13.1187 7.4964V7.50265" stroke="#2F7D8E" stroke-width="1.2494" stroke-linecap="round" stroke-linejoin="round"/>
<path id="Vector_12" d="M7.4964 13.1187V12.494" stroke="#2F7D8E" stroke-width="1.2494" stroke-linecap="round" stroke-linejoin="round"/>
</g>
</svg>
