<svg preserveAspectRatio="none" overflow="visible" style="display: block;" width="18.4472" height="18.4472" viewBox="0 0 18.4472 18.4472" fill="none" xmlns="http://www.w3.org/2000/svg">
<g id="Icon">
<path id="Vector" d="M2.30493 15.3727C2.10108 15.3727 1.90557 15.2917 1.76142 15.1476C1.61728 15.0034 1.5363 14.8079 1.5363 14.6041V13.8354C1.5363 13.4277 1.69826 13.0367 1.98655 12.7484C2.27485 12.4601 2.66586 12.2982 3.07357 12.2982H15.3717C15.7794 12.2982 16.1704 12.4601 16.4587 12.7484C16.747 13.0367 16.909 13.4277 16.909 13.8354V14.6041C16.909 14.8079 16.828 15.0034 16.6839 15.1476C16.5397 15.2917 16.3442 15.3727 16.1404 15.3727H2.30493Z" stroke="#977028" stroke-width="1.15295" stroke-linecap="round" stroke-linejoin="round"/>
<path id="Vector_2" d="M15.3717 12.2982C15.3717 10.6673 14.7239 9.10329 13.5707 7.95011C12.4175 6.79694 10.8535 6.14909 9.22265 6.14909C7.59181 6.14909 6.02777 6.79694 4.87459 7.95011C3.72142 9.10329 3.07357 10.6673 3.07357 12.2982" stroke="#977028" stroke-width="1.15295" stroke-linecap="round" stroke-linejoin="round"/>
<path id="Vector_3" d="M9.22266 3.07454V6.14908" stroke="#977028" stroke-width="1.15295" stroke-linecap="round" stroke-linejoin="round"/>
<path id="Vector_4" d="M7.68538 3.07454H10.7599" stroke="#977028" stroke-width="1.15295" stroke-linecap="round" stroke-linejoin="round"/>
</g>
</svg>
