<svg preserveAspectRatio="none" overflow="visible" style="display: block;" width="50.6577" height="50.6551" viewBox="0 0 50.6577 50.6551" fill="none" xmlns="http://www.w3.org/2000/svg">
<g id="#000000ff">
<path id="Vector" d="M12.6195 0H38.0281C38.4812 0.0346273 38.8542 0.434326 38.8324 0.892396C38.8364 2.2854 38.8493 3.6794 38.8245 5.07142C38.2655 5.05658 37.7065 5.07043 37.1476 5.06054C37.1486 3.93663 37.1486 2.81273 37.1476 1.68882C29.2684 1.68783 21.3892 1.68783 13.51 1.68882C13.508 11.5368 13.51 21.3858 13.509 31.2348C12.946 31.2368 12.3841 31.2368 11.8211 31.2348C11.8211 21.1514 11.8201 11.0679 11.8211 0.984405C11.7736 0.502591 12.1278 0.0405634 12.6195 0Z" fill="black"/>
<path id="Vector_2" d="M15.1984 3.37611C15.7614 3.37611 16.3233 3.37512 16.8863 3.3771C16.8872 3.93608 16.8823 4.49506 16.8902 5.05405C16.3263 5.0768 15.7624 5.06097 15.1984 5.06394C15.1974 4.501 15.1964 3.93905 15.1984 3.37611Z" fill="black"/>
<path id="Vector_3" d="M33.7701 3.3771C34.3321 3.37512 34.895 3.37611 35.458 3.37611C35.4589 3.93905 35.4589 4.501 35.458 5.06394C34.9 5.06889 34.342 5.05702 33.784 5.07186C33.7523 4.50694 33.778 3.94202 33.7701 3.3771Z" fill="black"/>
<path id="Vector_4" d="M24.8643 7.54338C25.5064 6.99132 26.3612 6.74398 27.1992 6.75684C33.8328 6.75487 40.4674 6.75487 47.101 6.75684C47.8272 6.7519 48.5672 6.92207 49.1678 7.34353C50.0661 7.93615 50.6122 8.97893 50.6577 10.0464V22.0146C50.6241 23.2612 49.8712 24.4593 48.7344 24.9876C47.9212 25.4042 46.9852 25.323 46.1027 25.328C40.0034 25.329 33.904 25.327 27.8047 25.329C27.1754 25.328 26.5254 25.3527 25.9239 25.1341C24.5942 24.6987 23.6415 23.3641 23.6494 21.9652C23.6336 18.074 23.6454 14.1819 23.6435 10.2898C23.6177 9.25298 24.0521 8.20229 24.8643 7.54338ZM25.5094 9.3816C25.2581 9.87528 25.3442 10.4442 25.3313 10.9764C33.2105 10.9764 41.0897 10.9764 48.9689 10.9754C48.955 10.4471 49.0401 9.88616 48.7967 9.39446C48.5128 8.79194 47.8519 8.41797 47.192 8.44468C40.4991 8.44369 33.8071 8.44369 27.1151 8.44468C26.4572 8.41599 25.7973 8.78403 25.5094 9.3816ZM25.3303 12.6643C25.3303 13.7892 25.3293 14.915 25.3313 16.0399C33.2105 16.0399 41.0897 16.0409 48.9689 16.0399C48.9699 14.915 48.9689 13.7901 48.9699 12.6653C41.0897 12.6643 33.2105 12.6643 25.3303 12.6643ZM25.3313 17.7278C25.3323 19.1416 25.3244 20.5553 25.3352 21.9691C25.3234 22.8595 26.1178 23.651 27.0102 23.6362C33.7398 23.6441 40.4694 23.6382 47.1989 23.6392C48.0884 23.6906 48.9293 22.9525 48.961 22.0562C48.9808 20.6137 48.9639 19.1712 48.9689 17.7288C41.0897 17.7288 33.2105 17.7288 25.3313 17.7278Z" fill="black"/>
<path id="Vector_5" d="M15.2927 15.5879C14.8891 12.786 15.8913 9.84369 17.8937 7.84817C18.2915 8.2449 18.6882 8.64262 19.0859 9.04033C17.8176 10.3196 17.0192 12.0559 16.9123 13.8575C16.755 15.9905 17.5811 18.1542 19.0859 19.667C18.6882 20.0647 18.2915 20.4634 17.8927 20.8591C16.4898 19.4404 15.547 17.5705 15.2927 15.5879Z" fill="black"/>
<path id="Vector_6" d="M18.7943 14.6409C18.7032 13.0728 19.3127 11.4839 20.4297 10.3807C20.8224 10.7814 21.2231 11.1742 21.6169 11.5739C20.8195 12.4158 20.3624 13.5902 20.5029 14.7537C20.5771 15.651 21.0114 16.4781 21.6169 17.1311C21.2201 17.5298 20.8244 17.9295 20.4227 18.3233C19.4561 17.3468 18.8526 16.0161 18.7943 14.6409Z" fill="black"/>
<path id="Vector_7" d="M27.8649 19.4196C28.9898 19.4196 30.1147 19.4186 31.2396 19.4196C31.2415 19.9796 31.2356 20.5395 31.2435 21.0995C30.1176 21.1183 28.9908 21.1035 27.8639 21.1074C27.8629 20.5445 27.8619 19.9815 27.8649 19.4196Z" fill="black"/>
<path id="Vector_8" d="M32.9319 19.4192C34.0558 19.4182 35.1807 19.4202 36.3046 19.4182C36.3085 19.9812 36.3065 20.5441 36.3065 21.1071C35.1807 21.1081 34.0558 21.1081 32.9309 21.1071C32.9299 20.5441 32.9289 19.9822 32.9319 19.4192Z" fill="black"/>
<path id="Vector_9" d="M43.9097 19.4146C45.0326 19.4255 46.1555 19.4166 47.2785 19.4195C47.2804 19.9815 47.2785 20.5444 47.2794 21.1074C46.1526 21.1084 45.0267 21.1084 43.9008 21.1074C43.9038 20.5425 43.8879 19.9785 43.9097 19.4146Z" fill="black"/>
<path id="Vector_10" d="M37.1482 27.0185C37.7112 27.0136 38.2741 27.0146 38.838 27.0175C38.837 34.3684 38.8361 41.7193 38.838 49.0692C38.8311 49.3977 38.8677 49.7341 38.7886 50.0576C38.6985 50.3949 38.373 50.6096 38.0396 50.6551H12.6291C12.1799 50.6195 11.807 50.2258 11.8267 49.7697C11.8139 46.9698 11.8258 44.169 11.8208 41.3691C12.3837 41.3661 12.9467 41.3661 13.5106 41.3691C13.5106 43.9018 13.5096 46.4336 13.5106 48.9663C21.3898 48.9673 29.269 48.9673 37.1482 48.9663C37.1492 41.6501 37.1502 34.3348 37.1482 27.0185Z" fill="black"/>
<path id="Vector_11" d="M23.0193 29.0773C24.7734 28.4996 26.7382 28.6074 28.4241 29.3583C29.7943 29.9618 30.9756 30.9828 31.7721 32.2502C32.6842 33.6808 33.0839 35.426 32.9009 37.1119C32.7426 38.6424 32.0985 40.1165 31.0884 41.277C30.014 42.5216 28.524 43.4002 26.9133 43.7346C25.4333 44.0472 23.8622 43.9048 22.4632 43.327C20.7833 42.6404 19.3547 41.3315 18.5642 39.6941C13.5294 39.6575 8.49359 39.6941 3.45779 39.6763C2.61585 39.6812 1.76797 39.3884 1.14171 38.8195C0.454113 38.2229 0.0613398 37.3394 0 36.4381V36.2492C0.033638 35.1995 0.554037 34.1735 1.41675 33.566C2.00641 33.1297 2.74347 32.9289 3.47164 32.9299C8.49953 32.918 13.5274 32.9398 18.5553 32.919C19.4428 31.1055 21.094 29.6848 23.0193 29.0773ZM23.6861 30.6336C22.397 30.9987 21.2641 31.8366 20.4934 32.9269C21.6767 32.9269 22.86 32.9289 24.0432 32.9259C24.5755 32.9239 25.1216 32.9447 25.6252 33.1357C26.8421 33.5581 27.7494 34.7384 27.8364 36.0256C27.967 37.3503 27.2151 38.7027 26.0249 39.2954C25.5075 39.5704 24.9178 39.6773 24.3361 39.6782C23.0549 39.6812 21.7747 39.6782 20.4934 39.6802C20.81 40.0483 21.091 40.4529 21.4808 40.7507C23.2369 42.3317 25.9893 42.6562 28.065 41.5273C29.8349 40.6369 31.0657 38.7799 31.2141 36.8062C31.3852 35.0026 30.6531 33.1416 29.3007 31.9356C27.8236 30.5693 25.6143 30.0627 23.6861 30.6336ZM2.91364 34.684C2.24088 34.869 1.72345 35.5071 1.69674 36.2066C1.60473 37.2187 2.56836 38.1012 3.56464 37.9924C10.5237 37.9884 17.4828 37.9944 24.4429 37.9894C25.2107 38.0151 25.9458 37.4581 26.1169 36.7082C26.3138 35.9741 25.9359 35.147 25.2582 34.8077C24.8228 34.5682 24.3133 34.6197 23.8355 34.6157C17.2098 34.6157 10.5831 34.6157 3.95642 34.6147C3.60916 34.6187 3.25299 34.592 2.91364 34.684Z" fill="black"/>
<path id="Vector_12" d="M15.1984 45.5917C15.7624 45.5947 16.3263 45.5789 16.8902 45.6016C16.8823 46.1596 16.8872 46.7186 16.8863 47.2776C16.3243 47.2806 15.7614 47.2786 15.1984 47.2796C15.1974 46.7166 15.1964 46.1537 15.1984 45.5917Z" fill="black"/>
<path id="Vector_13" d="M33.7795 45.6283C34.3147 45.5383 34.9044 45.6165 35.4614 45.5917C35.4624 46.1537 35.4624 46.7166 35.4614 47.2796C34.8984 47.2786 34.3355 47.2805 33.7736 47.2786C33.7795 46.7275 33.7617 46.1774 33.7795 45.6283Z" fill="black"/>
</g>
</svg>
