<svg preserveAspectRatio="none" width="100%" height="100%" overflow="visible" style="display: block;" viewBox="0 0 12.9827 12.9827" fill="none" xmlns="http://www.w3.org/2000/svg">
<g id="Icon" clip-path="url(#clip0_0_47)">
<path id="Vector" d="M5.40946 1.08189V2.16378" stroke="#B8975A" stroke-width="1.08189" stroke-linecap="round" stroke-linejoin="round"/>
<path id="Vector_2" d="M7.57324 1.08189V2.16378" stroke="#B8975A" stroke-width="1.08189" stroke-linecap="round" stroke-linejoin="round"/>
<path id="Vector_3" d="M8.65513 4.32757C8.7986 4.32757 8.93619 4.38456 9.03764 4.48601C9.13909 4.58745 9.19608 4.72504 9.19608 4.86851V9.19608C9.19608 9.76995 8.96811 10.3203 8.56232 10.7261C8.15653 11.1319 7.60617 11.3599 7.0323 11.3599H3.78662C3.21275 11.3599 2.66238 11.1319 2.25659 10.7261C1.85081 10.3203 1.62284 9.76995 1.62284 9.19608V4.86851C1.62284 4.72504 1.67983 4.58745 1.78128 4.48601C1.88272 4.38456 2.02032 4.32757 2.16378 4.32757H9.73702C10.3109 4.32757 10.8613 4.55554 11.2671 4.96132C11.6728 5.36711 11.9008 5.91748 11.9008 6.49135C11.9008 7.06522 11.6728 7.61559 11.2671 8.02138C10.8613 8.42716 10.3109 8.65513 9.73702 8.65513H9.19608" stroke="#B8975A" stroke-width="1.08189" stroke-linecap="round" stroke-linejoin="round"/>
<path id="Vector_4" d="M3.24568 1.08189V2.16378" stroke="#B8975A" stroke-width="1.08189" stroke-linecap="round" stroke-linejoin="round"/>
</g>
<defs>
<clipPath id="clip0_0_47">
<rect width="12.9827" height="12.9827" fill="white"/>
</clipPath>
</defs>
</svg>