<svg preserveAspectRatio="none" width="100%" height="100%" overflow="visible" style="display: block;" viewBox="0 0 12.9827 12.9827" fill="none" xmlns="http://www.w3.org/2000/svg">
<g id="Icon" clip-path="url(#clip0_0_8)">
<path id="Vector" d="M8.65513 10.8189V2.16378C8.65513 1.87685 8.54115 1.60166 8.33825 1.39877C8.13536 1.19588 7.86018 1.08189 7.57324 1.08189H5.40946C5.12252 1.08189 4.84734 1.19588 4.64445 1.39877C4.44155 1.60166 4.32757 1.87685 4.32757 2.16378V10.8189" stroke="#8C7B6E" stroke-width="1.08189" stroke-linecap="round" stroke-linejoin="round"/>
<path id="Vector_2" d="M10.8189 3.24568H2.16378C1.56627 3.24568 1.08189 3.73005 1.08189 4.32757V9.73703C1.08189 10.3345 1.56627 10.8189 2.16378 10.8189H10.8189C11.4164 10.8189 11.9008 10.3345 11.9008 9.73703V4.32757C11.9008 3.73005 11.4164 3.24568 10.8189 3.24568Z" stroke="#8C7B6E" stroke-width="1.08189" stroke-linecap="round" stroke-linejoin="round"/>
</g>
<defs>
<clipPath id="clip0_0_8">
<rect width="12.9827" height="12.9827" fill="white"/>
</clipPath>
</defs>
</svg>