<svg preserveAspectRatio="none" width="100%" height="100%" overflow="visible" style="display: block;" viewBox="0 0 14.9928 14.9928" fill="none" xmlns="http://www.w3.org/2000/svg">
<g id="Icon" clip-path="url(#clip0_0_21)">
<path id="Vector" d="M1.28813 7.279C1.23607 7.41926 1.23607 7.57354 1.28813 7.7138C1.7952 8.9433 2.65592 9.99455 3.76118 10.7343C4.86643 11.474 6.16644 11.8689 7.4964 11.8689C8.82636 11.8689 10.1264 11.474 11.2316 10.7343C12.3369 9.99455 13.1976 8.9433 13.7047 7.7138C13.7567 7.57354 13.7567 7.41926 13.7047 7.279C13.1976 6.0495 12.3369 4.99825 11.2316 4.25852C10.1264 3.51878 8.82636 3.12389 7.4964 3.12389C6.16644 3.12389 4.86643 3.51878 3.76118 4.25852C2.65592 4.99825 1.7952 6.0495 1.28813 7.279Z" stroke="#B8975A" stroke-width="1.2494" stroke-linecap="round" stroke-linejoin="round"/>
<path id="Vector_2" d="M7.4964 9.3705C8.53144 9.3705 9.3705 8.53144 9.3705 7.4964C9.3705 6.46136 8.53144 5.6223 7.4964 5.6223C6.46136 5.6223 5.6223 6.46136 5.6223 7.4964C5.6223 8.53144 6.46136 9.3705 7.4964 9.3705Z" stroke="#B8975A" stroke-width="1.2494" stroke-linecap="round" stroke-linejoin="round"/>
</g>
<defs>
<clipPath id="clip0_0_21">
<rect width="14.9928" height="14.9928" fill="white"/>
</clipPath>
</defs>
</svg>