<svg width="71" height="71" viewBox="0 0 71 71" fill="none" xmlns="http://www.w3.org/2000/svg">
<g opacity="0.5">
<path d="M21.9486 32.1921L24.8751 46.8248" stroke="#303030" stroke-width="2.86681" stroke-linecap="round" stroke-linejoin="round"/>
<path d="M8.90133 12.5669C8.85834 12.3045 8.88767 12.0354 8.98615 11.7884C9.08464 11.5414 9.24855 11.3259 9.4603 11.1651C11.4972 9.71648 18.4828 5.85345 35.1231 5.85345C51.7633 5.85345 58.749 9.71648 60.7858 11.1651C60.9981 11.3256 61.1626 11.5409 61.2616 11.7879C61.3606 12.0349 61.3904 12.3043 61.3477 12.5669L56.3726 49.8627C56.1346 51.6477 55.4879 53.3538 54.4828 54.8481C53.4778 56.3425 52.1416 57.5848 50.5781 58.4784L49.6416 59.0139C45.22 61.5403 40.2156 62.8692 35.1231 62.8692C30.0306 62.8692 25.0262 61.5403 20.6045 59.0139L19.668 58.4784C18.1045 57.5848 16.7683 56.3425 15.7633 54.8481C14.7583 53.3538 14.1116 51.6477 13.8735 49.8627L8.90133 12.5669Z" stroke="#303030" stroke-width="2.86681"/>
<path d="M8.7793 14.633C16.3034 22.4381 53.9328 22.4381 61.4569 14.633" stroke="#303030" stroke-width="2.86681"/>
</g>
</svg>
