<svg preserveAspectRatio="none" width="100%" height="100%" overflow="visible" style="display: block;" viewBox="0 0 10.9917 10.9917" fill="none" xmlns="http://www.w3.org/2000/svg">
<g id="Icon" clip-path="url(#clip0_0_11)">
<path id="Vector" d="M7.3278 9.61774V8.70176C7.3278 8.2159 7.13479 7.74994 6.79123 7.40638C6.44768 7.06282 5.98171 6.86981 5.49585 6.86981H2.74793C2.26206 6.86981 1.7961 7.06282 1.45254 7.40638C1.10898 7.74994 0.915975 8.2159 0.915975 8.70176V9.61774" stroke="#7A7168" stroke-width="0.915975" stroke-linecap="round" stroke-linejoin="round"/>
<path id="Vector_2" d="M4.12189 5.03786C5.13365 5.03786 5.95384 4.21767 5.95384 3.20591C5.95384 2.19415 5.13365 1.37396 4.12189 1.37396C3.11013 1.37396 2.28994 2.19415 2.28994 3.20591C2.28994 4.21767 3.11013 5.03786 4.12189 5.03786Z" stroke="#7A7168" stroke-width="0.915975" stroke-linecap="round" stroke-linejoin="round"/>
<path id="Vector_3" d="M10.0757 9.61774V8.70176C10.0754 8.29586 9.94032 7.90155 9.69164 7.58075C9.44296 7.25995 9.09477 7.03083 8.70176 6.92935" stroke="#7A7168" stroke-width="0.915975" stroke-linecap="round" stroke-linejoin="round"/>
<path id="Vector_4" d="M7.3278 1.4335C7.72186 1.5344 8.07113 1.76357 8.32055 2.0849C8.56997 2.40623 8.70535 2.80143 8.70535 3.2082C8.70535 3.61497 8.56997 4.01018 8.32055 4.3315C8.07113 4.65283 7.72186 4.88201 7.3278 4.9829" stroke="#7A7168" stroke-width="0.915975" stroke-linecap="round" stroke-linejoin="round"/>
</g>
<defs>
<clipPath id="clip0_0_11">
<rect width="10.9917" height="10.9917" fill="white"/>
</clipPath>
</defs>
</svg>
