<svg width="25" height="25" viewBox="0 0 25 25" fill="none" xmlns="http://www.w3.org/2000/svg">
<path d="M15.22 21.308V13.1907C15.22 12.9216 15.1131 12.6635 14.9228 12.4732C14.7325 12.2829 14.4744 12.176 14.2053 12.176H10.1467C9.87755 12.176 9.61947 12.2829 9.42918 12.4732C9.23889 12.6635 9.13199 12.9216 9.13199 13.1907V21.308" stroke="#141414" stroke-width="1.522" stroke-linecap="round" stroke-linejoin="round"/>
<path d="M3.04398 10.1469C3.04391 9.8517 3.10824 9.56004 3.23249 9.29227C3.35674 9.02449 3.53791 8.78704 3.76338 8.59649L10.866 2.5095C11.2323 2.19993 11.6964 2.03009 12.176 2.03009C12.6556 2.03009 13.1196 2.19993 13.4859 2.5095L20.5886 8.59649C20.8141 8.78704 20.9952 9.02449 21.1195 9.29227C21.2437 9.56004 21.3081 9.8517 21.308 10.1469V19.2789C21.308 19.8171 21.0942 20.3333 20.7136 20.7139C20.333 21.0944 19.8169 21.3082 19.2787 21.3082H5.07331C4.5351 21.3082 4.01893 21.0944 3.63835 20.7139C3.25778 20.3333 3.04398 19.8171 3.04398 19.2789V10.1469Z" stroke="#141414" stroke-width="1.522" stroke-linecap="round" stroke-linejoin="round"/>
</svg>
