<svg preserveAspectRatio="none" width="100%" height="100%" overflow="visible" style="display: block;" viewBox="0 0 14.9928 14.9928" fill="none" xmlns="http://www.w3.org/2000/svg">
<g id="Icon" clip-path="url(#clip0_0_24)">
<path id="Vector" d="M4.3729 10.1826C5.74724 10.1826 6.8717 9.03941 6.8717 7.65257C6.8717 6.92792 6.51562 6.24075 5.80346 5.65978C5.09131 5.07881 4.55406 4.21673 4.3729 3.31091C4.19174 4.21673 3.66074 5.08506 2.94234 5.65978C2.22393 6.23451 1.8741 6.93417 1.8741 7.65257C1.8741 9.03941 2.99856 10.1826 4.3729 10.1826Z" stroke="#B8975A" stroke-width="1.2494" stroke-linecap="round" stroke-linejoin="round"/>
<path id="Vector_2" d="M7.84623 4.12302C8.27588 3.43655 8.58044 2.67937 8.7458 1.88659C9.05815 3.44834 9.9952 4.94762 11.2446 5.94714C12.494 6.94666 13.1187 8.13359 13.1187 9.38299C13.1223 10.2465 12.8694 11.0916 12.392 11.8113C11.9147 12.5309 11.2345 13.0926 10.4376 13.4251C9.64065 13.7577 8.76293 13.8461 7.91568 13.6792C7.06843 13.5124 6.28981 13.0977 5.67852 12.4878" stroke="#B8975A" stroke-width="1.2494" stroke-linecap="round" stroke-linejoin="round"/>
</g>
<defs>
<clipPath id="clip0_0_24">
<rect width="14.9928" height="14.9928" fill="white"/>
</clipPath>
</defs>
</svg>