<svg preserveAspectRatio="none" width="100%" height="100%" overflow="visible" style="display: block;" viewBox="0 0 11.7659 11.7659" fill="none" xmlns="http://www.w3.org/2000/svg">
<g id="Icon" clip-path="url(#clip0_0_7)">
<path id="Vector" d="M6.17857 10.6874C7.09043 9.90009 9.80591 7.3508 9.80591 4.903C9.80591 3.86283 9.3927 2.86526 8.65719 2.12974C7.92167 1.39423 6.9241 0.981022 5.88393 0.981022C4.84376 0.981022 3.84619 1.39423 3.11067 2.12974C2.37516 2.86526 1.96195 3.86283 1.96195 4.903C1.96195 7.3508 4.67743 9.90009 5.58929 10.6874C5.67424 10.7513 5.77764 10.7858 5.88393 10.7858C5.99021 10.7858 6.09362 10.7513 6.17857 10.6874Z" stroke="#B8975A" stroke-width="0.980494" stroke-linecap="round" stroke-linejoin="round"/>
<path id="Vector_2" d="M5.88281 6.37314C6.69508 6.37314 7.35355 5.71466 7.35355 4.9024C7.35355 4.09013 6.69508 3.43166 5.88281 3.43166C5.07054 3.43166 4.41207 4.09013 4.41207 4.9024C4.41207 5.71466 5.07054 6.37314 5.88281 6.37314Z" stroke="#B8975A" stroke-width="0.980494" stroke-linecap="round" stroke-linejoin="round"/>
</g>
<defs>
<clipPath id="clip0_0_7">
<rect width="11.7659" height="11.7659" fill="white"/>
</clipPath>
</defs>
</svg>
