<svg preserveAspectRatio="none" width="100%" height="100%" overflow="visible" style="display: block;" viewBox="0 0 13.997 13.997" fill="none" xmlns="http://www.w3.org/2000/svg">
<g id="Icon" clip-path="url(#clip0_0_88)">
<path id="Vector" d="M11.081 6.41529H2.91604C2.27185 6.41529 1.74963 6.93751 1.74963 7.58171V11.6642C1.74963 12.3084 2.27185 12.8306 2.91604 12.8306H11.081C11.7252 12.8306 12.2474 12.3084 12.2474 11.6642V7.58171C12.2474 6.93751 11.7252 6.41529 11.081 6.41529Z" stroke="#8C7B6E" stroke-width="1.16642" stroke-linecap="round" stroke-linejoin="round"/>
<path id="Vector_2" d="M4.08246 6.41529V4.08246C4.08246 3.30908 4.38968 2.56737 4.93655 2.02051C5.48341 1.47364 6.22512 1.16642 6.9985 1.16642C7.77188 1.16642 8.51359 1.47364 9.06045 2.02051C9.60732 2.56737 9.91454 3.30908 9.91454 4.08246V6.41529" stroke="#8C7B6E" stroke-width="1.16642" stroke-linecap="round" stroke-linejoin="round"/>
</g>
<defs>
<clipPath id="clip0_0_88">
<rect width="13.997" height="13.997" fill="white"/>
</clipPath>
</defs>
</svg>