<svg width="25" height="26" viewBox="0 0 25 26" fill="none" xmlns="http://www.w3.org/2000/svg">
<path d="M8.68281 0.0628493C8.87804 -0.043962 9.14985 -0.0159414 9.29916 0.156962C11.6013 2.8114 13.0839 6.16185 13.5111 9.64843C13.5964 10.309 13.6297 10.9748 13.6467 11.6401C13.9965 9.40676 14.591 7.18226 15.6844 5.19008C16.0513 4.5571 16.717 4.11499 17.4385 4.00424C19.5641 3.68644 21.7511 3.62034 23.8645 4.06071C24.156 4.1036 24.3473 4.44767 24.2347 4.71863C24.1568 4.89239 24.0409 5.04603 23.9424 5.20842C22.2768 7.80336 19.9235 9.94918 17.1911 11.3766C16.3577 11.8192 15.4818 12.1764 14.5914 12.4867C16.6107 12.1458 18.6825 12.021 20.7167 12.3072C21.1172 12.3703 21.5322 12.4101 21.9007 12.5935C22.4168 12.833 22.8436 13.2576 23.0862 13.7728C24.0224 15.6564 24.7395 17.6739 24.9828 19.772C25.0047 19.9239 24.9951 20.0929 24.8914 20.2154C24.7697 20.3783 24.5478 20.4339 24.356 20.384C20.3079 19.4376 16.6247 17.0186 14.1502 13.6778C15.051 15.4655 15.8074 17.3465 16.1616 19.3246C16.2325 19.7597 16.3328 20.2019 16.2658 20.6444C16.1918 21.2056 15.9147 21.7339 15.5041 22.1227C14.0254 23.565 12.3642 24.8498 10.4854 25.7274C10.3458 25.79 10.1983 25.8754 10.0394 25.8408C9.81128 25.8097 9.62486 25.6026 9.62003 25.372C9.32539 21.8526 10.109 18.2517 11.838 15.1718C12.1278 14.6347 12.475 14.1317 12.8054 13.6196C11.3929 15.016 9.84811 16.3029 8.09014 17.2428C7.71893 17.4336 7.35206 17.6529 6.93756 17.7348C6.36501 17.8521 5.7535 17.7619 5.23909 17.4835C3.35727 16.4955 1.57137 15.2734 0.135532 13.6936C-0.098242 13.4673 -0.0176866 13.0247 0.285694 12.9017C3.64223 11.4795 7.44051 11.131 11.002 11.9067C11.5019 12.0052 11.9882 12.1606 12.4819 12.2836C10.5082 11.2658 8.611 10.0385 7.07763 8.41624C6.565 7.86771 6.34227 7.07675 6.46221 6.33909C6.81151 4.26207 7.40817 2.20339 8.44029 0.357885C8.50158 0.246261 8.56898 0.128949 8.68281 0.0628493Z" fill="#08414D"/>
</svg>
