<svg preserveAspectRatio="none" width="100%" height="100%" overflow="visible" style="display: block;" viewBox="0 0 19.9904 19.9904" fill="none" xmlns="http://www.w3.org/2000/svg">
<g id="Icon" clip-path="url(#clip0_0_57)">
<path id="Vector" d="M14.6596 11.4945C14.6596 9.07897 16.6587 7.91287 16.742 7.82957C16.3255 7.24652 15.2427 5.91383 13.7434 5.91383C12.494 5.83053 11.2446 6.66347 10.5783 6.66347C9.82861 6.66347 8.7458 5.91383 7.57969 5.99712C6.08041 6.08041 4.66443 6.91335 3.91479 8.24604C2.33221 10.9947 3.49832 15.0761 4.9976 17.325C5.74724 18.4078 6.66347 19.5739 7.82957 19.5739C8.91239 19.4906 9.32885 18.9076 10.6615 18.9076C11.9942 18.9076 12.3274 19.5739 13.4935 19.5739C14.7429 19.5739 15.4926 18.4911 16.2422 17.4916C16.9918 16.3255 17.325 15.2427 17.325 15.2427C17.325 15.2427 14.9928 14.3265 14.9928 11.4945H14.6596ZM12.8272 3.91479C13.4102 3.24844 13.91 2.33221 13.7434 1.33269C12.8272 1.41599 11.6611 1.91575 10.9114 2.66539C10.2451 3.33173 9.66203 4.33125 9.82861 5.24748C10.8281 5.24748 11.9942 4.66443 12.8272 3.91479Z" fill="#3C5358"/>
</g>
<defs>
<clipPath id="clip0_0_57">
<rect width="19.9904" height="19.9904" fill="white"/>
</clipPath>
</defs>
</svg>