<svg preserveAspectRatio="none" width="100%" height="100%" overflow="visible" style="display: block;" viewBox="0 0 19.9904 19.9904" fill="none" xmlns="http://www.w3.org/2000/svg">
<g id="Icon">
<path id="Vector" d="M18.1579 8.37098H17.4916V8.32933H9.9952V11.6611H14.7013C14.0349 13.2187 12.5356 14.3265 9.9952 14.3265C7.23819 14.3265 4.9976 12.0859 4.9976 9.32885C4.9976 6.57184 7.23819 4.33125 9.9952 4.33125C11.2862 4.33125 12.4524 4.83101 13.3269 5.6223L15.6841 3.2651C14.4097 2.12398 12.3274 1.2494 9.9952 1.2494C5.6223 1.2494 2.08233 4.78937 2.08233 9.16227C2.08233 13.5352 5.6223 17.0751 9.9952 17.0751C14.3681 17.0751 17.9081 13.5352 17.9081 9.16227C17.9081 8.6042 17.8498 8.06279 17.7415 7.53805H18.1579V8.37098Z" fill="#3C5358"/>
</g>
</svg>