<svg preserveAspectRatio="none" width="100%" height="100%" overflow="visible" style="display: block;" viewBox="0 0 19.9904 19.9904" fill="none" xmlns="http://www.w3.org/2000/svg">
<g id="Icon" clip-path="url(#clip0_0_49)">
<path id="Vector" d="M4.9976 18.3245V3.33173C4.9976 2.88992 5.17311 2.4662 5.48552 2.15379C5.79793 1.84138 6.22165 1.66587 6.66347 1.66587H13.3269C13.7687 1.66587 14.1925 1.84138 14.5049 2.15379C14.8173 2.4662 14.9928 2.88992 14.9928 3.33173V18.3245H4.9976Z" stroke="#3C5358" stroke-width="1.66587" stroke-linecap="round" stroke-linejoin="round"/>
<path id="Vector_2" d="M4.9976 9.9952H3.33173C2.88992 9.9952 2.4662 10.1707 2.15379 10.4831C1.84138 10.7955 1.66587 11.2193 1.66587 11.6611V16.6587C1.66587 17.1005 1.84138 17.5242 2.15379 17.8366C2.4662 18.149 2.88992 18.3245 3.33173 18.3245H4.9976" stroke="#3C5358" stroke-width="1.66587" stroke-linecap="round" stroke-linejoin="round"/>
<path id="Vector_3" d="M14.9928 7.4964H16.6587C17.1005 7.4964 17.5242 7.67191 17.8366 7.98432C18.149 8.29673 18.3245 8.72045 18.3245 9.16227V16.6587C18.3245 17.1005 18.149 17.5242 17.8366 17.8366C17.5242 18.149 17.1005 18.3245 16.6587 18.3245H14.9928" stroke="#3C5358" stroke-width="1.66587" stroke-linecap="round" stroke-linejoin="round"/>
<path id="Vector_4" d="M8.32933 4.9976H11.6611" stroke="#3C5358" stroke-width="1.66587" stroke-linecap="round" stroke-linejoin="round"/>
<path id="Vector_5" d="M8.32933 8.32933H11.6611" stroke="#3C5358" stroke-width="1.66587" stroke-linecap="round" stroke-linejoin="round"/>
<path id="Vector_6" d="M8.32933 11.6611H11.6611" stroke="#3C5358" stroke-width="1.66587" stroke-linecap="round" stroke-linejoin="round"/>
<path id="Vector_7" d="M8.32933 14.9928H11.6611" stroke="#3C5358" stroke-width="1.66587" stroke-linecap="round" stroke-linejoin="round"/>
</g>
<defs>
<clipPath id="clip0_0_49">
<rect width="19.9904" height="19.9904" fill="white"/>
</clipPath>
</defs>
</svg>