<svg preserveAspectRatio="none" width="100%" height="100%" overflow="visible" style="display: block;" viewBox="0 0 10.6679 10.6679" fill="none" xmlns="http://www.w3.org/2000/svg">
<g id="Icon" clip-path="url(#clip0_0_4)">
<path id="Vector" d="M5.60109 9.68953C6.42786 8.97567 8.88993 6.66428 8.88993 4.4449C8.88993 3.5018 8.51528 2.59732 7.84841 1.93044C7.18153 1.26357 6.27705 0.88892 5.33395 0.88892C4.39084 0.88892 3.48637 1.26357 2.81949 1.93044C2.15261 2.59732 1.77797 3.5018 1.77797 4.4449C1.77797 6.66428 4.24004 8.97567 5.06681 9.68953C5.14383 9.74745 5.23758 9.77877 5.33395 9.77877C5.43032 9.77877 5.52407 9.74745 5.60109 9.68953Z" stroke="white" stroke-width="0.888995" stroke-linecap="round" stroke-linejoin="round"/>
<path id="Vector_2" d="M5.33392 5.77803C6.07039 5.77803 6.66741 5.18101 6.66741 4.44454C6.66741 3.70807 6.07039 3.11105 5.33392 3.11105C4.59745 3.11105 4.00043 3.70807 4.00043 4.44454C4.00043 5.18101 4.59745 5.77803 5.33392 5.77803Z" stroke="white" stroke-width="0.888995" stroke-linecap="round" stroke-linejoin="round"/>
</g>
<defs>
<clipPath id="clip0_0_4">
<rect width="10.6679" height="10.6679" fill="white"/>
</clipPath>
</defs>
</svg>
