<svg width="24" height="24" viewBox="0 0 24 24" fill="none" xmlns="http://www.w3.org/2000/svg">
<path d="M3 20C2.73478 20 2.48043 19.8364 2.29289 19.5451C2.10536 19.2538 2 18.8587 2 18.4468V16.8936C2 16.0697 2.21071 15.2795 2.58579 14.697C2.96086 14.1144 3.46956 13.7871 4 13.7871H20C20.5304 13.7871 21.0391 14.1144 21.4142 14.697C21.7893 15.2795 22 16.0697 22 16.8936V18.4468C22 18.8587 21.8946 19.2538 21.7071 19.5451C21.5195 19.8364 21.2652 20 21 20H3Z" fill="#141414" stroke="#141414" stroke-width="1.5" stroke-linecap="round" stroke-linejoin="round"/>
<path d="M20.0002 16.0002C20.0002 13.8785 19.1573 11.8437 17.657 10.3434C16.1567 8.8431 14.1219 8.00024 12.0002 8.00024C9.87844 8.00024 7.84361 8.8431 6.34333 10.3434C4.84304 11.8437 4.00018 13.8785 4.00018 16.0002" stroke="#141414" stroke-width="1.5" stroke-linecap="round" stroke-linejoin="round"/>
<path d="M12 4.00018V8.00018" stroke="#141414" stroke-width="1.5" stroke-linecap="round" stroke-linejoin="round"/>
<path d="M10.0001 4.00018H14.0001" stroke="#141414" stroke-width="1.5" stroke-linecap="round" stroke-linejoin="round"/>
</svg>
