<svg preserveAspectRatio="none" width="100%" height="100%" overflow="visible" style="display: block;" viewBox="0 0 10.99 10.99" fill="none" xmlns="http://www.w3.org/2000/svg">
<g id="Ruler" clip-path="url(#clip0_0_4)">
<path id="Vector" d="M10.1023 3.14981L7.84034 0.888272C7.77656 0.824473 7.70083 0.773864 7.61748 0.739336C7.53414 0.704807 7.44481 0.687036 7.35459 0.687036C7.26438 0.687036 7.17505 0.704807 7.0917 0.739336C7.00836 0.773864 6.93263 0.824473 6.86884 0.888272L0.887879 6.86881C0.82408 6.93259 0.773471 7.00832 0.738943 7.09166C0.704414 7.17501 0.686642 7.26434 0.686642 7.35456C0.686642 7.44477 0.704414 7.5341 0.738943 7.61745C0.773471 7.70079 0.82408 7.77652 0.887879 7.84031L3.14984 10.1018C3.21363 10.1656 3.28936 10.2162 3.3727 10.2508C3.45605 10.2853 3.54538 10.3031 3.63559 10.3031C3.72581 10.3031 3.81514 10.2853 3.89849 10.2508C3.98183 10.2162 4.05756 10.1656 4.12134 10.1018L10.1023 4.12131C10.1661 4.05752 10.2167 3.98179 10.2512 3.89845C10.2858 3.8151 10.3035 3.72577 10.3035 3.63556C10.3035 3.54534 10.2858 3.45601 10.2512 3.37267C10.2167 3.28932 10.1661 3.21359 10.1023 3.14981ZM3.63538 9.61631L1.37384 7.35434L2.74759 5.98059L3.87836 7.11179C3.91027 7.1437 3.94815 7.16901 3.98984 7.18628C4.03153 7.20355 4.07622 7.21244 4.12134 7.21244C4.16647 7.21244 4.21115 7.20355 4.25284 7.18628C4.29454 7.16901 4.33242 7.1437 4.36433 7.11179C4.39623 7.07988 4.42155 7.042 4.43881 7.00031C4.45608 6.95862 4.46497 6.91393 4.46497 6.86881C4.46497 6.82368 4.45608 6.779 4.43881 6.73731C4.42155 6.69562 4.39623 6.65773 4.36433 6.62582L3.23313 5.49506L4.12134 4.60684L5.25211 5.73804C5.31655 5.80248 5.40396 5.83869 5.49509 5.83869C5.58623 5.83869 5.67363 5.80248 5.73808 5.73804C5.80252 5.6736 5.83872 5.58619 5.83872 5.49506C5.83872 5.40392 5.80252 5.31652 5.73808 5.25207L4.60688 4.12131L5.49509 3.23309L6.62586 4.36429C6.65777 4.3962 6.69565 4.42151 6.73734 4.43878C6.77903 4.45605 6.82372 4.46494 6.86884 4.46494C6.91397 4.46494 6.95865 4.45605 7.00034 4.43878C7.04204 4.42151 7.07992 4.3962 7.11183 4.36429C7.14373 4.33238 7.16905 4.2945 7.18631 4.25281C7.20358 4.21112 7.21247 4.16643 7.21247 4.12131C7.21247 4.07618 7.20358 4.0315 7.18631 3.98981C7.16905 3.94811 7.14373 3.91023 7.11183 3.87832L5.98063 2.74756L7.35438 1.37381L9.61634 3.63577L3.63538 9.61631Z" fill="#7A7168"/>
</g>
<defs>
<clipPath id="clip0_0_4">
<rect width="10.99" height="10.99" fill="white"/>
</clipPath>
</defs>
</svg>
