<svg preserveAspectRatio="none" width="100%" height="100%" overflow="visible" style="display: block;" viewBox="0 0 14.9928 14.9928" fill="none" xmlns="http://www.w3.org/2000/svg">
<g id="Icon" clip-path="url(#clip0_0_88)">
<path id="Vector" d="M11.2446 4.9976C12.2796 4.9976 13.1187 4.15854 13.1187 3.1235C13.1187 2.08846 12.2796 1.2494 11.2446 1.2494C10.2096 1.2494 9.3705 2.08846 9.3705 3.1235C9.3705 4.15854 10.2096 4.9976 11.2446 4.9976Z" stroke="#8C7B6E" stroke-width="1.2494" stroke-linecap="round" stroke-linejoin="round"/>
<path id="Vector_2" d="M3.7482 9.3705C4.78324 9.3705 5.6223 8.53144 5.6223 7.4964C5.6223 6.46136 4.78324 5.6223 3.7482 5.6223C2.71316 5.6223 1.8741 6.46136 1.8741 7.4964C1.8741 8.53144 2.71316 9.3705 3.7482 9.3705Z" stroke="#8C7B6E" stroke-width="1.2494" stroke-linecap="round" stroke-linejoin="round"/>
<path id="Vector_3" d="M11.2446 13.7434C12.2796 13.7434 13.1187 12.9043 13.1187 11.8693C13.1187 10.8343 12.2796 9.9952 11.2446 9.9952C10.2096 9.9952 9.3705 10.8343 9.3705 11.8693C9.3705 12.9043 10.2096 13.7434 11.2446 13.7434Z" stroke="#8C7B6E" stroke-width="1.2494" stroke-linecap="round" stroke-linejoin="round"/>
<path id="Vector_4" d="M5.36617 8.4397L9.63287 10.926" stroke="#8C7B6E" stroke-width="1.2494" stroke-linecap="round" stroke-linejoin="round"/>
<path id="Vector_5" d="M9.62663 4.0668L5.36617 6.5531" stroke="#8C7B6E" stroke-width="1.2494" stroke-linecap="round" stroke-linejoin="round"/>
</g>
<defs>
<clipPath id="clip0_0_88">
<rect width="14.9928" height="14.9928" fill="white"/>
</clipPath>
</defs>
</svg>