<svg preserveAspectRatio="none" overflow="visible" style="display: block;" width="16.5644" height="16.5609" viewBox="0 0 16.5644 16.5609" fill="none" xmlns="http://www.w3.org/2000/svg">
<g id="#0a0a0aff">
<path id="Vector" d="M5.54172 0.106256L5.54075 0.107232C7.55479 0.109811 9.56993 0.102283 11.5847 0.109186L11.5837 0.110162C11.8339 0.0989679 12.0735 0.144472 12.3025 0.201959C12.5374 0.260967 12.7525 0.32888 12.9782 0.370904L12.989 0.372857L12.9607 0.469537L12.989 0.373834C14.3697 0.78782 15.5529 1.72486 16.3786 2.88653L16.3991 2.91583L16.3962 2.95098L16.3786 3.20098L16.3757 3.23907L16.3484 3.26544C16.0427 3.56393 15.6586 3.76611 15.321 3.9793C14.5505 4.48656 13.7143 4.88985 12.8513 5.20879L12.8445 5.21075C12.6127 5.27752 12.4031 5.33896 12.2566 5.48223C12.4242 5.60996 12.5857 5.76201 12.6931 5.95684L12.7419 6.0584L12.7478 6.0711L12.7497 6.08477C12.7861 6.38048 12.8196 6.7484 12.614 7.04473C12.5571 7.13744 12.5548 7.23574 12.5837 7.34258C12.6137 7.45334 12.6745 7.5636 12.7361 7.67657L12.7439 7.68926L12.7468 7.70391C12.7761 7.84452 12.777 7.98511 12.7712 8.11895C12.7667 8.22145 12.7599 8.31417 12.7556 8.40704C12.9147 8.40872 13.074 8.40988 13.2341 8.40899C13.4281 8.40791 13.6235 8.4064 13.8191 8.40899C14.0606 8.40056 14.2633 8.50662 14.4255 8.65118C14.5879 8.79596 14.7163 8.98474 14.8132 9.15411L14.823 9.17169L14.8259 9.19122C14.855 9.42238 14.8651 9.66652 14.8249 9.90508L14.823 9.92071L14.8152 9.93438C14.7554 10.0498 14.6934 10.1579 14.6618 10.2684C14.6321 10.3727 14.6342 10.4652 14.6911 10.5525C14.8273 10.7486 14.8526 10.9663 14.8493 11.1727C14.8477 11.2754 14.8389 11.3804 14.8318 11.4783C14.8262 11.5541 14.8224 11.6268 14.822 11.6971C15.5003 11.9584 16.0592 12.5045 16.3015 13.1981C16.6186 13.9352 16.4463 14.7462 16.0105 15.3699C15.575 15.9931 14.8662 16.444 14.0896 16.4549H14.0886C9.91191 16.4583 5.73765 16.4535 1.56125 16.4578V16.4568C0.936311 16.5018 0.396223 16.046 0.152074 15.5262L0.145238 15.5115L0.143285 15.4959C0.105435 15.1868 0.0970379 14.8632 0.149145 14.5496L0.152074 14.534L0.159887 14.5193C0.215459 14.4141 0.279282 14.3151 0.341527 14.2205C0.393263 14.1419 0.441085 14.0652 0.487035 13.9881C0.439791 13.9122 0.389814 13.8371 0.336645 13.7586C0.272593 13.664 0.20714 13.564 0.153051 13.4559L0.145238 13.4402L0.143285 13.4236C0.105358 13.1132 0.0987871 12.7895 0.146215 12.4754L0.149145 12.4588L0.157934 12.4432C0.354956 12.0823 0.662219 11.6873 1.12278 11.5887L1.2595 11.5555C1.3967 11.5292 1.53373 11.5215 1.66672 11.5193C1.79256 11.5173 1.91087 11.5173 2.02805 11.5145C1.91702 11.3062 1.79847 11.09 1.70481 10.867L1.69895 10.8533L1.697 10.8397C1.65729 10.4964 1.65649 10.1447 1.69895 9.80059L1.7009 9.78399L1.70871 9.76934C1.77058 9.63981 1.8472 9.51987 1.92161 9.40606C1.99463 9.29436 2.06427 9.18861 2.12375 9.07794C2.14652 8.99179 2.1178 8.92306 2.04954 8.83965C2.01298 8.79504 1.97188 8.7534 1.92551 8.70391C1.88148 8.65692 1.8338 8.60359 1.79758 8.54376V8.54278C1.70607 8.43831 1.67692 8.31617 1.66965 8.20196C1.66586 8.14206 1.66679 8.08151 1.66868 8.02618C1.67062 7.96926 1.673 7.91838 1.67161 7.86993C1.66725 7.7196 1.73184 7.59776 1.79368 7.49786C1.85209 7.40347 1.90284 7.33158 1.9343 7.25274C1.90857 7.19042 1.87608 7.12932 1.83762 7.06524C1.79373 6.99212 1.74163 6.91077 1.69993 6.82598L1.69309 6.81231L1.69114 6.79669C1.65394 6.55602 1.66129 6.3097 1.697 6.07403L1.69895 6.05938L1.70579 6.04669C1.84727 5.75078 2.08189 5.51016 2.35227 5.33868L2.37082 5.32598L2.39329 5.32403C2.64921 5.29206 2.90538 5.29204 3.15598 5.29571C3.40206 5.29931 3.64164 5.3043 3.87961 5.28985C3.8805 5.28938 3.88164 5.28935 3.88254 5.28887C2.92909 4.92533 1.9739 4.51998 1.12375 3.9295V3.93047C0.793491 3.72588 0.471709 3.50558 0.150121 3.29376L0.10227 3.26251L0.105199 3.20587C0.110885 3.07698 0.138143 2.95335 0.189184 2.8377L0.19309 2.82891L0.198949 2.82012C1.39071 1.12374 3.44721 0.00798137 5.54172 0.106256ZM14.0896 12.3065L14.0818 12.3074V12.3065C9.8809 12.3056 5.67999 12.304 1.47922 12.3074H1.46848C1.25089 12.2842 1.05532 12.4098 0.936254 12.6063C0.818352 12.801 0.789576 13.0437 0.881566 13.2322C0.984528 13.3611 1.09998 13.4783 1.22825 13.5789C1.39174 13.6004 1.55668 13.5959 1.73606 13.5984C5.85035 13.5959 9.96562 13.5983 14.0798 13.5975C14.2384 13.5896 14.3906 13.6371 14.5173 13.6717L14.5945 13.6932L14.5906 13.7732C14.5828 13.9434 14.5812 14.1112 14.5759 14.2859L14.573 14.3826H1.46262C1.33861 14.368 1.23546 14.4185 1.13352 14.5106C1.03168 14.6025 0.949632 14.7151 0.854223 14.8279C0.750835 15.154 0.955697 15.4706 1.26047 15.6551C1.4145 15.6722 1.5695 15.67 1.73606 15.6717C5.88289 15.6691 10.029 15.6758 14.1755 15.6697H14.1823L14.2917 15.6688C14.5442 15.6493 14.7846 15.5111 15.0066 15.3475C15.3733 15.0288 15.7161 14.637 15.6784 14.1717V13.7078C15.6722 13.5626 15.647 13.4336 15.5759 13.3211L15.572 13.3152C15.2738 12.7558 14.7245 12.2568 14.0896 12.3065ZM13.9216 9.18633C10.4634 9.20504 7.00252 9.18468 3.54563 9.19415H3.53977V9.19317C3.16025 9.16873 2.79979 9.43051 2.572 9.75274L2.56711 9.7586C2.50146 9.83745 2.47322 9.93435 2.46262 10.0486C2.45735 10.1057 2.45659 10.1651 2.45676 10.2273C2.45693 10.2884 2.4578 10.3548 2.45579 10.4178V10.4227C2.43046 10.7228 2.56971 11.0095 2.79758 11.2176C3.02577 11.4259 3.33333 11.5462 3.62668 11.5232H3.6345C7.05672 11.5267 10.481 11.5122 13.905 11.5291C13.9691 11.4664 14.0259 11.4177 14.072 11.3563C14.1196 11.2926 14.141 11.2328 14.1267 11.16L14.1238 11.1434L14.1257 11.1258C14.1394 11.0312 14.1022 10.9259 14.029 10.8475C13.9562 10.7694 13.8594 10.7299 13.7663 10.7449L13.7585 10.7459H13.7507C10.1962 10.7519 6.64545 10.7422 3.09153 10.7508L3.00461 10.7518L2.99192 10.6658C2.97747 10.5715 2.96104 10.4772 2.94407 10.3816C2.92716 10.2865 2.90971 10.1899 2.89524 10.0926L2.87864 9.97833H2.99289C6.62189 9.94906 10.2664 9.98289 13.8933 9.96075C14.0462 9.8957 14.1242 9.75164 14.1267 9.59161C14.129 9.43259 14.0556 9.27412 13.9216 9.18633ZM11.6042 7.57501L11.5964 7.57696H2.76047C2.69785 7.57348 2.64261 7.60027 2.57981 7.65411C2.54825 7.68117 2.5171 7.7122 2.48411 7.74688C2.45913 7.77313 2.43096 7.80081 2.40305 7.82794C2.34104 8.05242 2.41343 8.26158 2.59055 8.41094C5.67783 8.40172 8.75833 8.41755 11.8445 8.40411C11.9089 8.33683 11.9745 8.26991 12.0417 8.20391C12.0448 8.08755 12.0469 7.96712 12.0505 7.84942C12.0189 7.82036 11.9874 7.79074 11.9587 7.76251C11.9173 7.72168 11.8784 7.6844 11.8386 7.65313C11.7603 7.59161 11.6886 7.56113 11.6042 7.57501ZM2.73215 6.08184C2.69077 6.0818 2.65438 6.08228 2.6218 6.08672C2.56022 6.09516 2.52309 6.11452 2.49778 6.15899L2.48996 6.17266L2.47922 6.18243C2.37799 6.27788 2.3627 6.39644 2.40207 6.5252C2.43923 6.64667 2.52519 6.76732 2.61887 6.85919C5.69006 6.849 8.76131 6.84735 11.8318 6.85919C11.9609 6.70931 12.0181 6.52001 11.9831 6.32305L11.9802 6.3084L11.9822 6.29376C11.9972 6.16724 11.8955 6.06587 11.7878 6.08282L11.78 6.08379H11.7722C8.80196 6.07431 5.83202 6.08418 2.86106 6.07989L2.73215 6.08184ZM5.54465 0.774225C5.29715 0.823395 5.04368 0.82448 4.80832 0.833795C4.56439 0.843458 4.33416 0.86274 4.11594 0.945123L4.10911 0.948053L4.10129 0.950006C3.12729 1.1547 2.22341 1.6639 1.51536 2.36504C1.30685 2.57273 1.1052 2.75784 1.01633 3.00176C1.51752 3.33703 2.04084 3.63984 2.56711 3.94317C3.5069 4.42761 4.52337 4.75021 5.54856 5.0252C5.84816 5.03998 6.14083 5.09318 6.42649 5.14825C6.71887 5.20462 7.00335 5.26243 7.29172 5.28692H7.29075C8.00131 5.30227 8.71219 5.29869 9.42356 5.28497C9.67557 5.25649 9.9235 5.20034 10.1794 5.14532C10.4318 5.09106 10.6913 5.03782 10.9577 5.01837C11.2304 4.94744 11.5019 4.87157 11.7722 4.79083L12.5857 4.53497C13.6234 4.17457 14.583 3.62125 15.5027 3.01055C15.4816 2.92407 15.4612 2.8561 15.4138 2.80254L15.4128 2.80059C14.6527 1.90533 13.63 1.21731 12.4822 0.957818L12.4685 0.954889V0.953912C12.239 0.86685 11.9976 0.845602 11.7419 0.834771C11.4948 0.824303 11.2293 0.823209 10.9704 0.774225C9.1617 0.772502 7.35316 0.769934 5.54465 0.774225Z" fill="#020202" stroke="#020202" stroke-width="0.2"/>
</g>
</svg>
