<svg preserveAspectRatio="none" width="100%" height="100%" overflow="visible" style="display: block;" viewBox="0 0 10.0438 11.116" fill="none" xmlns="http://www.w3.org/2000/svg">
<g id="Ruler">
<path id="Vector" d="M9.2324 3.18635L7.16518 0.898889C7.10689 0.834359 7.03768 0.78317 6.96151 0.748246C6.88534 0.713322 6.8037 0.695346 6.72125 0.695346C6.6388 0.695346 6.55716 0.713322 6.48099 0.748246C6.40482 0.78317 6.33561 0.834359 6.27732 0.898889L0.811277 6.94798C0.752971 7.0125 0.706719 7.08909 0.675163 7.1734C0.643608 7.2577 0.627366 7.34805 0.627366 7.4393C0.627366 7.53055 0.643608 7.62091 0.675163 7.70521C0.706719 7.78951 0.752971 7.8661 0.811277 7.93062L2.8785 10.2181C2.9368 10.2826 3.006 10.3338 3.08217 10.3687C3.15834 10.4036 3.23998 10.4216 3.32243 10.4216C3.40488 10.4216 3.48652 10.4036 3.56269 10.3687C3.63886 10.3338 3.70807 10.2826 3.76636 10.2181L9.2324 4.16899C9.29071 4.10447 9.33696 4.02788 9.36852 3.94357C9.40007 3.85927 9.41631 3.76892 9.41631 3.67767C9.41631 3.58642 9.40007 3.49606 9.36852 3.41176C9.33696 3.32746 9.29071 3.25087 9.2324 3.18635ZM3.32224 9.72698L1.2554 7.43908L2.51088 6.04959L3.5443 7.19375C3.57346 7.22603 3.60808 7.25163 3.64618 7.26909C3.68428 7.28656 3.72512 7.29555 3.76636 7.29555C3.8076 7.29555 3.84844 7.28656 3.88654 7.26909C3.92464 7.25163 3.95926 7.22603 3.98842 7.19375C4.01759 7.16148 4.04072 7.12316 4.0565 7.08099C4.07228 7.03882 4.08041 6.99363 4.08041 6.94798C4.08041 6.90234 4.07228 6.85714 4.0565 6.81497C4.04072 6.77281 4.01759 6.73449 3.98842 6.70222L2.95462 5.55848L3.76636 4.66009L4.79978 5.80425C4.85867 5.86943 4.93855 5.90605 5.02184 5.90605C5.10513 5.90605 5.18501 5.86943 5.2439 5.80425C5.3028 5.73907 5.33588 5.65067 5.33588 5.55848C5.33588 5.4663 5.3028 5.3779 5.2439 5.31272L4.21009 4.16899L5.02184 3.27059L6.05526 4.41475C6.08442 4.44703 6.11904 4.47263 6.15714 4.4901C6.19524 4.50756 6.23608 4.51655 6.27732 4.51655C6.31856 4.51655 6.3594 4.50756 6.3975 4.4901C6.4356 4.47263 6.47022 4.44703 6.49938 4.41475C6.52854 4.38248 6.55168 4.34416 6.56746 4.302C6.58324 4.25983 6.59136 4.21463 6.59136 4.16899C6.59136 4.12334 6.58324 4.07815 6.56746 4.03598C6.55168 3.99381 6.52854 3.95549 6.49938 3.92322L5.46557 2.77949L6.72105 1.38999L8.78828 3.67789L3.32224 9.72698Z" fill="#2C2C2C"/>
</g>
</svg>