<svg preserveAspectRatio="none" width="100%" height="100%" overflow="visible" style="display: block;" viewBox="0 0 11.9869 11.9869" fill="none" xmlns="http://www.w3.org/2000/svg">
<g id="Icon" clip-path="url(#clip0_0_32)">
<path id="Vector" d="M5.75621 1.14625C5.7781 1.10203 5.81191 1.0648 5.85383 1.03878C5.89575 1.01275 5.94411 0.998961 5.99345 0.998961C6.04279 0.998961 6.09115 1.01275 6.13307 1.03878C6.17499 1.0648 6.2088 1.10203 6.23069 1.14625L7.38443 3.48319C7.46044 3.63701 7.57263 3.77008 7.71138 3.871C7.85014 3.97191 8.01131 4.03764 8.18106 4.06256L10.7612 4.44015C10.8101 4.44723 10.8561 4.46785 10.8938 4.49968C10.9316 4.53151 10.9597 4.57328 10.975 4.62025C10.9903 4.66723 10.9921 4.71755 10.9803 4.76551C10.9685 4.81347 10.9434 4.85717 10.9081 4.89165L9.04212 6.70867C8.91906 6.82859 8.82699 6.97662 8.77383 7.14001C8.72067 7.30341 8.70801 7.47727 8.73695 7.64664L9.17747 10.2138C9.1861 10.2627 9.18082 10.313 9.16224 10.359C9.14365 10.405 9.11251 10.4449 9.07236 10.4741C9.03221 10.5032 8.98467 10.5205 8.93517 10.5239C8.88567 10.5274 8.83619 10.5169 8.79239 10.4935L6.48591 9.28086C6.33394 9.20106 6.16485 9.15937 5.9932 9.15937C5.82155 9.15937 5.65246 9.20106 5.50049 9.28086L3.19451 10.4935C3.15072 10.5167 3.10131 10.5271 3.05189 10.5236C3.00247 10.5201 2.95503 10.5028 2.91496 10.4737C2.87489 10.4445 2.84381 10.4047 2.82524 10.3588C2.80667 10.3129 2.80137 10.2626 2.80993 10.2138L3.24995 7.64714C3.27901 7.47769 3.26642 7.30372 3.21326 7.14022C3.16009 6.97672 3.06795 6.82861 2.94478 6.70867L1.07882 4.89215C1.04316 4.85771 1.01788 4.81394 1.00588 4.76583C0.99388 4.71772 0.99563 4.66721 1.01093 4.62005C1.02624 4.57288 1.05448 4.53097 1.09244 4.49907C1.13041 4.46718 1.17657 4.44659 1.22566 4.43965L3.80534 4.06256C3.97528 4.03784 4.13667 3.97219 4.27562 3.87126C4.41457 3.77034 4.5269 3.63716 4.60297 3.48319L5.75621 1.14625Z" fill="#B8975A" stroke="#B8975A" stroke-width="0.998908" stroke-linecap="round" stroke-linejoin="round"/>
</g>
<defs>
<clipPath id="clip0_0_32">
<rect width="11.9869" height="11.9869" fill="white"/>
</clipPath>
</defs>
</svg>