<svg preserveAspectRatio="none" overflow="visible" style="display: block;" width="14" height="14" viewBox="0 0 14 14" fill="none" xmlns="http://www.w3.org/2000/svg">
<g id="AirTrafficControl">
<path id="Vector" d="M12.5298 3.87297C12.4491 3.75774 12.3417 3.66368 12.2169 3.59875C12.0921 3.53383 11.9535 3.49995 11.8128 3.5H7.43781V1.75H8.31281C8.42885 1.75 8.54013 1.70391 8.62217 1.62186C8.70422 1.53981 8.75032 1.42853 8.75032 1.3125C8.75032 1.19647 8.70422 1.08519 8.62217 1.00314C8.54013 0.921094 8.42885 0.875 8.31281 0.875H5.68781C5.57178 0.875 5.4605 0.921094 5.37846 1.00314C5.29641 1.08519 5.25031 1.19647 5.25031 1.3125C5.25031 1.42853 5.29641 1.53981 5.37846 1.62186C5.4605 1.70391 5.57178 1.75 5.68781 1.75H6.56281V3.5H2.18781C2.04733 3.50032 1.90898 3.53445 1.78447 3.59953C1.65996 3.6646 1.55296 3.7587 1.4725 3.87387C1.39204 3.98903 1.34049 4.12188 1.32221 4.26118C1.30394 4.40047 1.31947 4.54212 1.3675 4.67414L2.79977 8.61164C2.86105 8.7801 2.97259 8.92566 3.11931 9.02866C3.26602 9.13165 3.44083 9.1871 3.62008 9.1875H5.25031V12.6875C5.25031 12.8035 5.29641 12.9148 5.37846 12.9969C5.4605 13.0789 5.57178 13.125 5.68781 13.125C5.80385 13.125 5.91513 13.0789 5.99717 12.9969C6.07922 12.9148 6.12531 12.8035 6.12531 12.6875V9.1875H7.87531V12.6875C7.87531 12.8035 7.92141 12.9148 8.00346 12.9969C8.0855 13.0789 8.19678 13.125 8.31281 13.125C8.42885 13.125 8.54013 13.0789 8.62217 12.9969C8.70422 12.9148 8.75032 12.8035 8.75032 12.6875V9.1875H10.3811C10.5604 9.1871 10.7352 9.13165 10.8819 9.02866C11.0286 8.92566 11.1401 8.7801 11.2014 8.61164L12.6337 4.67414C12.682 4.54208 12.6978 4.40031 12.6797 4.26085C12.6616 4.12138 12.6102 3.98833 12.5298 3.87297ZM6.05313 8.3125L5.33672 4.375H8.66391L7.9475 8.3125H6.05313ZM2.18781 4.375H4.4475L5.16336 8.3125H3.61953L2.18781 4.375ZM10.3811 8.3125H8.83727L9.55313 4.375H11.8128L10.3811 8.3125Z" fill="#242424"/>
</g>
</svg>
