<svg preserveAspectRatio="none" width="100%" height="100%" overflow="visible" style="display: block;" viewBox="0 0 10.0434 11.1155" fill="none" xmlns="http://www.w3.org/2000/svg">
<g id="SunHorizon">
<path id="Vector" d="M9.41416 6.59965H7.82723C7.83881 6.4843 7.84471 6.36834 7.84488 6.25229C7.84488 5.42316 7.54728 4.62799 7.01755 4.04171C6.48781 3.45542 5.76934 3.12605 5.02018 3.12605C4.27102 3.12605 3.55255 3.45542 3.02281 4.04171C2.49308 4.62799 2.19547 5.42316 2.19547 6.25229C2.19565 6.36834 2.20155 6.4843 2.21313 6.59965H0.626195C0.542955 6.59965 0.463124 6.63624 0.404265 6.70138C0.345406 6.76653 0.312339 6.85488 0.312339 6.94701C0.312339 7.03913 0.345406 7.12748 0.404265 7.19263C0.463124 7.25777 0.542955 7.29436 0.626195 7.29436H9.41416C9.4974 7.29436 9.57723 7.25777 9.63609 7.19263C9.69495 7.12748 9.72802 7.03913 9.72802 6.94701C9.72802 6.85488 9.69495 6.76653 9.63609 6.70138C9.57723 6.63624 9.4974 6.59965 9.41416 6.59965ZM2.82319 6.25229C2.82261 5.91791 2.88435 5.587 3.00456 5.28023C3.12476 4.97346 3.30085 4.69743 3.5218 4.46938C3.74276 4.24133 4.00383 4.06618 4.28872 3.95485C4.57361 3.84353 4.87618 3.79843 5.17753 3.82238C5.47888 3.84633 5.77252 3.93881 6.04012 4.09404C6.30771 4.24927 6.5435 4.46392 6.73274 4.72456C6.92199 4.98521 7.06063 5.28625 7.14 5.60888C7.21937 5.93151 7.23776 6.26879 7.19402 6.59965H2.84633C2.83114 6.48462 2.82341 6.36854 2.82319 6.25229ZM8.47259 8.6838C8.47259 8.77593 8.43953 8.86428 8.38067 8.92942C8.32181 8.99456 8.24198 9.03116 8.15874 9.03116H1.88162C1.79838 9.03116 1.71855 8.99456 1.65969 8.92942C1.60083 8.86428 1.56776 8.77593 1.56776 8.6838C1.56776 8.59168 1.60083 8.50332 1.65969 8.43818C1.71855 8.37304 1.79838 8.33644 1.88162 8.33644H8.15874C8.24198 8.33644 8.32181 8.37304 8.38067 8.43818C8.43953 8.50332 8.47259 8.59168 8.47259 8.6838ZM2.85614 1.89206C2.81889 1.80961 2.81276 1.71416 2.8391 1.6267C2.86544 1.53925 2.92209 1.46696 2.99659 1.42573C3.07109 1.3845 3.15734 1.37772 3.23636 1.40687C3.31538 1.43602 3.38069 1.49872 3.41794 1.58117L3.7318 2.27589C3.75024 2.31672 3.76124 2.36116 3.76417 2.4067C3.76709 2.45223 3.76188 2.49795 3.74884 2.54125C3.7358 2.58455 3.71518 2.62459 3.68815 2.65907C3.66113 2.69355 3.62824 2.72181 3.59135 2.74222C3.55446 2.76263 3.5143 2.77481 3.47316 2.77804C3.43202 2.78128 3.39071 2.77551 3.35159 2.76108C3.31246 2.74665 3.27628 2.72382 3.24513 2.69392C3.21397 2.66401 3.18844 2.6276 3.17 2.58678L2.85614 1.89206ZM0.65915 4.01269C0.677608 3.97188 0.703152 3.93549 0.734321 3.90562C0.76549 3.87574 0.801674 3.85295 0.840804 3.83855C0.879934 3.82416 0.921243 3.81844 0.962372 3.82172C1.0035 3.825 1.04364 3.83722 1.0805 3.85768L1.70821 4.20504C1.78266 4.24626 1.83926 4.31853 1.86556 4.40595C1.89187 4.49336 1.88572 4.58876 1.84847 4.67115C1.81122 4.75355 1.74592 4.81619 1.66694 4.8453C1.58796 4.87441 1.50176 4.8676 1.42731 4.82638L0.7996 4.47902C0.762693 4.45863 0.72978 4.43038 0.702743 4.39591C0.675706 4.36143 0.655076 4.32139 0.642031 4.27808C0.628987 4.23476 0.623784 4.18903 0.626722 4.1435C0.629659 4.09796 0.640679 4.05351 0.65915 4.01269ZM8.19169 4.67093C8.15451 4.58854 8.14842 4.49317 8.17476 4.4058C8.2011 4.31843 8.25771 4.24622 8.33214 4.20504L8.95986 3.85768C8.99672 3.83727 9.03685 3.82509 9.07797 3.82184C9.11908 3.81859 9.16037 3.82434 9.19948 3.83876C9.23859 3.85317 9.27475 3.87597 9.3059 3.90585C9.33704 3.93573 9.36257 3.97211 9.38101 4.01291C9.39946 4.0537 9.41046 4.09812 9.41339 4.14363C9.41633 4.18913 9.41113 4.23483 9.39811 4.27811C9.38509 4.32139 9.36449 4.36141 9.33749 4.39588C9.31049 4.43036 9.27762 4.4586 9.24076 4.47902L8.61305 4.82638C8.57616 4.84682 8.536 4.85902 8.49485 4.86227C8.45371 4.86552 8.41239 4.85976 8.37325 4.84532C8.33412 4.83089 8.29794 4.80805 8.26679 4.77813C8.23564 4.74821 8.21012 4.71178 8.19169 4.67093ZM6.30856 2.27589L6.62241 1.58117C6.65966 1.49872 6.72498 1.43602 6.804 1.40687C6.88302 1.37772 6.96927 1.3845 7.04377 1.42573C7.11827 1.46696 7.17492 1.53925 7.20126 1.6267C7.2276 1.71416 7.22147 1.80961 7.18422 1.89206L6.87036 2.58678C6.83311 2.66923 6.76779 2.73193 6.68877 2.76108C6.60975 2.79023 6.52351 2.78345 6.44901 2.74222C6.37451 2.701 6.31786 2.6287 6.29152 2.54125C6.26518 2.4538 6.27131 2.35834 6.30856 2.27589Z" fill="black"/>
</g>
</svg>