<svg preserveAspectRatio="none" width="100%" height="100%" overflow="visible" style="display: block;" viewBox="0 0 23.9922 23.9922" fill="none" xmlns="http://www.w3.org/2000/svg">
<g id="Icon">
<path id="Vector" d="M21.7229 17.9941L13.7255 3.9987C13.5512 3.691 13.2983 3.43507 12.9927 3.25701C12.6871 3.07895 12.3398 2.98513 11.9861 2.98513C11.6324 2.98513 11.2851 3.07895 10.9795 3.25701C10.6739 3.43507 10.421 3.691 10.2467 3.9987L2.24927 17.9941C2.07301 18.2994 1.98058 18.6458 1.98136 18.9983C1.98215 19.3508 2.0761 19.6968 2.25371 20.0013C2.43132 20.3058 2.68627 20.5579 2.99272 20.7321C3.29917 20.9063 3.64622 20.9963 3.9987 20.9932H19.9935C20.3443 20.9928 20.6888 20.9002 20.9925 20.7245C21.2961 20.5489 21.5482 20.2965 21.7234 19.9926C21.8987 19.6887 21.9909 19.3441 21.9908 18.9933C21.9907 18.6425 21.8983 18.2979 21.7229 17.9941Z" stroke="#C0392B" stroke-width="1.99935" stroke-linecap="round" stroke-linejoin="round"/>
<path id="Vector_2" d="M11.9961 8.99708V12.9958" stroke="#C0392B" stroke-width="1.99935" stroke-linecap="round" stroke-linejoin="round"/>
<path id="Vector_3" d="M11.9961 16.9945H12.0061" stroke="#C0392B" stroke-width="1.99935" stroke-linecap="round" stroke-linejoin="round"/>
</g>
</svg>